<?xml version="1.0" encoding="UTF-8" standalone="no"?>
<!-- Created with Inkscape (http://www.inkscape.org/) -->

<svg
   xmlns:dc="http://purl.org/dc/elements/1.1/"
   xmlns:cc="http://creativecommons.org/ns#"
   xmlns:rdf="http://www.w3.org/1999/02/22-rdf-syntax-ns#"
   xmlns:svg="http://www.w3.org/2000/svg"
   xmlns="http://www.w3.org/2000/svg"
   xmlns:sodipodi="http://sodipodi.sourceforge.net/DTD/sodipodi-0.dtd"
   xmlns:inkscape="http://www.inkscape.org/namespaces/inkscape"
   width="529.16669mm"
   height="529.16669mm"
   viewBox="0 0 529.16669 529.16669"
   version="1.1"
   id="svg6386"
   inkscape:version="0.92.3 (2405546, 2018-03-11)"
   sodipodi:docname="AttackathonLogoColorWhiteBG.svg">
  <defs
     id="defs6380" />
  <sodipodi:namedview
     id="base"
     pagecolor="#ffffff"
     bordercolor="#666666"
     borderopacity="1.0"
     inkscape:pageopacity="0.0"
     inkscape:pageshadow="2"
     inkscape:zoom="0.35"
     inkscape:cx="1110"
     inkscape:cy="577.14288"
     inkscape:document-units="mm"
     inkscape:current-layer="layer1"
     showgrid="false"
     fit-margin-top="0"
     fit-margin-left="0"
     fit-margin-right="0"
     fit-margin-bottom="0"
     inkscape:window-width="1842"
     inkscape:window-height="1051"
     inkscape:window-x="69"
     inkscape:window-y="-9"
     inkscape:window-maximized="1" />
  <metadata
     id="metadata6383">
    <rdf:RDF>
      <cc:Work
         rdf:about="">
        <dc:format>image/svg+xml</dc:format>
        <dc:type
           rdf:resource="http://purl.org/dc/dcmitype/StillImage" />
        <dc:title></dc:title>
      </cc:Work>
    </rdf:RDF>
  </metadata>
  <g
     inkscape:label="Layer 1"
     inkscape:groupmode="layer"
     id="layer1"
     transform="translate(407.45834,227.63097)">
    <rect
       style="opacity:1;fill:#ffffff;fill-opacity:1;stroke:none;stroke-width:76.79324341;stroke-linecap:butt;stroke-linejoin:bevel;stroke-miterlimit:4;stroke-dasharray:none;stroke-opacity:1;paint-order:markers fill stroke"
       id="rect5443-7-1"
       width="529.16669"
       height="529.16669"
       x="-407.45834"
       y="-227.63097"
       ry="0"
       inkscape:export-filename="C:\Users\ericc\Documents\GitHub\attackathon\AttackathonLogoColorWhiteBG.png"
       inkscape:export-xdpi="206.02"
       inkscape:export-ydpi="206.02" />
    <path
       style="opacity:1;fill:#133ef1;fill-opacity:1;stroke:none;stroke-width:60.37121964;stroke-linecap:butt;stroke-linejoin:bevel;stroke-miterlimit:4;stroke-dasharray:none;stroke-opacity:1;paint-order:markers fill stroke"
       d="M -142.87501,-146.55122 A 184.93635,184.93635 0 0 0 -327.81135,38.385887 184.93635,184.93635 0 0 0 -296.98862,140.41149 V 44.657597 c 0,-2.66812 0.0672,-5.3204 0.19989,-7.95441 0.13261,-2.6339 0.33081,-5.24979 0.59296,-7.8465 0.26216,-2.5967 0.58862,-5.1741 0.97704,-7.7304 0.38844,-2.5562 0.83876,-5.0913 1.35031,-7.6039 0.51155,-2.5126 1.08423,-5.0026996 1.71572,-7.4684896 0.63151,-2.46581 1.32206,-4.90761 2.0703,-7.32341 0.74827,-2.4158 1.55403,-4.8061 2.41586,-7.1687 0.86183,-2.3626004 1.77952,-4.6974004 2.75175,-7.0038004 0.97225,-2.3062 1.99921,-4.5835 3.07868,-6.8303 1.07947,-2.2468 2.2118,-4.46331 3.39531,-6.64741 1.1835,-2.184 2.41798,-4.336 3.70233,-6.4541 1.28438,-2.1182 2.61831,-4.2022 4.00035,-6.2513 1.382,-2.0491 2.81213,-4.0631 4.28868,-6.04 1.47656,-1.9768 3.00014,-3.9164 4.56802,-5.8178 1.5679,-1.9014 3.1805,-3.7645 4.83651,-5.5873 1.65605,-1.8228 3.35501,-3.6054 5.09599,-5.3464 1.74102,-1.741 3.52425,-3.4406 5.34704,-5.0966 1.82279,-1.656 3.68522,-3.2687 5.58662,-4.8365 1.90138,-1.5679 3.84155,-3.0909 5.81837,-4.5675 1.97684,-1.4766 3.99024,-2.9067 6.03933,-4.2887 2.04907,-1.3821 4.13369,-2.716 6.25184,-4.0004 2.11812,-1.2843 4.27005,-2.5194 6.45412,-3.7029 2.184,-1.1836 4.39997,-2.3159 6.64674,-3.3954 2.24676,-1.0795 4.52407,-2.1058 6.83037,-3.0781 2.30631,-0.9722 4.64171,-1.8899 7.00434,-2.751697 2.36264,-0.8619 4.75289,-1.6683 7.1687,-2.4165 2.41583,-0.7483 4.8576,-1.4388 7.32339,-2.0703 2.46581,-0.6315 4.95527,-1.2036 7.46791,-1.7151 2.51261,-0.5116 5.04826,-0.9625 7.60451,-1.3509 2.55629,-0.3885 5.13365,-0.7144 7.73038,-0.9765 2.59672,-0.2621 5.21255,-0.4603 7.84653,-0.593 2.63402,-0.1326 5.28565,-0.1998 7.95372,-0.1998 2.66811,0 5.32035,0.067 7.95433,0.1998 2.63401,0.1326 5.24984,0.3309 7.84654,0.593 2.59672,0.2621 5.17414,0.588 7.73035,0.9765 2.55628,0.3884 5.09136,0.8393 7.60397,1.3509 2.51262,0.5115 5.00266,1.0836 7.46847,1.7151 2.46579,0.6315 4.907626,1.322 7.323406,2.0703 2.41583,0.7482 4.80605,1.5546 7.16872,2.4165 2.36263,0.861797 4.69744,1.779497 7.00374,2.751697 2.30626,0.9723 4.58358,1.9986 6.83035,3.0781 2.24676,1.0795 4.46331,2.2118 6.64736,3.3954 2.18403,1.1835 4.33597,2.4186 6.45409,3.7029 2.11817,1.2844 4.20216,2.6183 6.25126,4.0004 2.04904,1.382 4.06307,2.8121 6.0399,4.2887 1.97684,1.4766 3.91642,2.9996 5.8178,4.5675 1.9014,1.5678 3.76441,3.1805 5.5872,4.8365 1.8228,1.656 3.60543,3.3556 5.34644,5.0966 1.74101,1.741 3.44056,3.5236 5.09659,5.3464 1.65602,1.8228 3.26861,3.6859 4.83653,5.5873 1.56789,1.9014 3.09086,3.841 4.56742,5.8178 1.47656,1.9769 2.90661,3.9909 4.28868,6.04 1.38205,2.0491 2.71656,4.1331 4.00093,6.2513 1.2843605,2.1181 2.5188305,4.2701 3.7023405,6.4541 1.18351,2.1841 2.31587,4.40061 3.39532,6.64741 1.07944,2.2468 2.10582,4.5241 3.07807999,6.8303 0.97224,2.3064 1.89050001,4.6412 2.75233001,7.0038004 0.86188,2.3627 1.66761,4.7529 2.41588,7.1687 0.74827,2.4158 1.43881,4.8576 2.07029,7.32341 0.6315,2.46579 1.20356,4.9558896 1.71513,7.4684896 0.51155,2.5126 0.96248,5.0477 1.35088,7.6039 0.38847,2.5563 0.7143295,5.1337 0.9764795,7.7304 0.26212,2.59671 0.46032,5.2126 0.59298,7.8465 0.13261,2.63401 0.19984,5.28629 0.19984,7.95441 V 140.3971 A 184.93635,184.93635 0 0 0 42.061356,38.385887 184.93635,184.93635 0 0 0 -142.87501,-146.55122 Z m 0,84.153697 c -2.13448,0 -4.25539,0.053 -6.36259,0.1596 -2.10717,0.1062 -4.20036,0.2647 -6.27771,0.4743 -2.0774,0.2098 -4.13939,0.4707 -6.18444,0.7815 -2.04498,0.3107 -4.07315,0.6713 -6.08325,1.0806 -2.01011,0.4092 -4.00228,0.8673 -5.97494,1.3726 -1.97264,0.5052 -3.92545,1.0574 -5.8581,1.6561 -1.93265,0.5986 -3.84459,1.2436 -5.73471,1.933 -1.89011,0.6895 -3.75846,1.4238 -5.60347,2.2016 -1.84503,0.7778 -3.66702,1.5986 -5.4644,2.4622 -1.79741,0.8636 -3.57031,1.7695 -5.31756,2.7163 -1.74721,0.9468 -3.46888,1.935 -5.16339,2.9625 -1.69454,1.0275 -3.36221,2.0946 -5.00148,3.2002 -1.63924,1.1057 -3.25023,2.2497 -4.83171,3.4309 -1.58146,1.1813 -3.13298,2.3999 -4.6541,3.6542 -1.52112,1.2543 -3.01167,2.5443 -4.4699,3.8691 -1.45824,1.3249 -2.88445,2.6846 -4.27727,4.0774 -1.39278,1.39281 -2.75194,2.81851 -4.07676,4.27671 -1.32485,1.4582 -2.61539,2.9488 -3.86968,4.4699 -1.25435,1.5211 -2.47232,3.0733 -3.65358,4.6547 -1.18125,1.5815 -2.3258,3.1924004 -3.43146,4.8317004 -1.10564,1.6393 -2.17276,3.3064 -3.20027,5.0009 -1.02748,1.6945 -2.01507,3.41621005 -2.96184,5.16341 -0.94682,1.74719 -1.8527,3.52009 -2.71625,5.31749 -0.8636,1.7974 -1.68502,3.6194096 -2.46283,5.4643996 -0.77779,1.8451 -1.51208,3.7134 -2.20155,5.6035 -0.68944,1.8901 -1.33382,3.8021 -1.93243,5.7347 -0.59861,1.9327 -1.1515,3.88611 -1.65672,5.8587 -0.50518,1.97271 -0.96271,3.9649 -1.37199,5.975 -0.40922,2.01001 -0.76982,4.0382 -1.08057,6.0832 -0.31076,2.04501 -0.57171,4.10641 -0.78141,6.18381 -0.20969,2.0774 -0.36826,4.1706 -0.47438,6.2778 -0.10618,2.10719 -0.16016,4.2287 -0.16016,6.3632 V 175.9648 a 184.93633,184.93633 0 0 0 30.82275,22.34711 V 74.524287 c 0,-1.60089 0.0408,-3.19169 0.12035,-4.7721 0.0796,-1.58039 0.1985,-3.15029 0.35578,-4.70829 0.15727,-1.558 0.35267,-3.10412 0.58572,-4.6378 0.23307,-1.53382 0.5034,-3.05509 0.81033,-4.56271 0.30694,-1.50749 0.65053,-3.00181 1.02942,-4.48131 0.3789,-1.47949 0.79296,-2.94449 1.24194,-4.39398 0.44896,-1.4495 0.93253,-2.8832 1.44962,-4.30081 0.51711,-1.41761 1.06798,-2.81879 1.6513,-4.20258 0.58335,-1.38372 1.19928,-2.75041 1.84696,-4.09851 0.64767,-1.34801 1.3271,-2.67721 2.03719,-3.98761 0.7101,-1.3104 1.4508,-2.6019 2.22139,-3.8727 0.77063,-1.2709 1.57098,-2.5217 2.40021,-3.7511 0.82924,-1.2295 1.68767,-2.4374 2.57361,-3.6235 0.8859,-1.1861 1.79959,-2.3502 2.74033,-3.4911 0.94073,-1.14079 1.90862,-2.2582 2.90225,-3.3519 0.99363,-1.0937 2.013,-2.1635 3.05758,-3.2080996 1.04461,-1.04459 2.11442,-2.0646 3.2081,-3.0582 1.09369,-0.9936 2.21113,-1.9609 3.35197,-2.9017 1.14083,-0.9407 2.30496,-1.8544 3.49105,-2.74029995 1.18609,-0.8859 2.39402,-1.74430005 3.62349,-2.57360005 1.22941,-0.8292 2.48018,-1.6296 3.75109,-2.4002 1.27087,-0.7706 2.56227,-1.5113 3.87269,-2.2214 1.31043,-0.7101 2.64025,-1.3895 3.98831,-2.0372 1.34804,-0.6476 2.71406,-1.2636004 4.09786,-1.8469004 1.38377,-0.5834 2.785,-1.1342 4.20261,-1.6514 1.41757,-0.517 2.85184,-1.0006 4.30131,-1.4496 1.44949,-0.4489 2.91401,-0.863 4.39344,-1.2419 1.47949,-0.3789 2.97375,-0.7225 4.48134,-1.0294 1.50757,-0.307 3.02886,-0.5773 4.5626,-0.8103 1.53376,-0.2331 3.07984,-0.4291 4.63787,-0.5864 1.55801,-0.1573 3.1279,-0.2762 4.70829,-0.3558 1.58042,-0.08 3.17125,-0.1198 4.77211,-0.1198 1.60085,0 3.19229,0.04 4.7727,0.1198 1.58039,0.08 3.15026,0.1985 4.70829,0.3558 1.55803,0.1573 3.10409,0.3533 4.63786,0.5864 1.53376,0.233 3.05503,0.5033 4.5626,0.8103 1.50757,0.3069 3.00125,0.6505 4.48072,1.0294 1.4795,0.3789 2.94455,0.793 4.39407,1.2419 1.44947,0.449 2.88375,0.9326 4.30136,1.4496 1.41755,0.5172 2.81881,1.068 4.20256,1.6514 1.3838,0.5833 2.74981,1.1993004 4.09787,1.8469004 1.34805,0.6477 2.67787,1.3271 3.988296,2.0372 1.31043,0.7101 2.6018,1.4508 3.8727,2.2214 1.27088,0.7706 2.52103,1.571 3.7505,2.4002 1.22947,0.8293 2.43798,1.68770005 3.62408,2.57360005 1.18612,0.88589995 2.35018,1.79959995 3.49104,2.74029995 1.14083,0.9408 2.25827,1.9081 3.35196,2.9017 1.09368,0.9936 2.16349,2.01361 3.20809,3.0582 1.04461,1.0445996 2.06399,2.1143996 3.05758,3.2080996 0.99365,1.0937 1.96157,2.21111 2.90227,3.3519 0.94075,1.1409 1.85444,2.305 2.74037,3.4911 0.88593,1.1861 1.74374,2.394 2.57294,3.6235 0.82926,1.2294 1.6302,2.4802 2.40083,3.7511 0.77062,1.2708 1.5113,2.5623 2.22139,3.8727 0.71011,1.3104 1.38951,2.6396 2.03718,3.98761 0.64768,1.3481 1.26363,2.71479 1.84695,4.09851 0.58336,1.38379 1.13419,2.78497 1.65132,4.20258 0.5171,1.41761 1.00007,2.85131 1.44902,4.30081 0.44894,1.44949 0.86362,2.91449 1.24253,4.39398 0.37891,1.4795 0.72253,2.97382 1.02947,4.48131 0.30692,1.50762 0.57722,3.02889 0.81029,4.56271 0.23304,1.53368 0.42846,3.0798 0.58573,4.6378 0.15727,1.558 0.2762,3.1279 0.35581,4.70829 0.0796,1.58041 0.11975,3.17121 0.11975,4.7721 V 198.1566 a 184.93633,184.93633 0 0 0 30.82275,-22.2249 V 60.893697 c 0,-2.1345 -0.0533,-4.25601 -0.15952,-6.3632 -0.10618,-2.1072 -0.26466,-4.2004 -0.47437,-6.27769 -0.20974,-2.07751 -0.4707,-4.13891 -0.78145,-6.18382 -0.31073,-2.0451 -0.67133,-4.07329 -1.08056,-6.0833 -0.40928,-2.0101 -0.86741,-4.00229 -1.37258,-5.9749 -0.50522,-1.97269 -1.05754,-3.9261 -1.65613,-5.8588 -0.59862,-1.9326 -1.24296,-3.8446 -1.93244,-5.7347 -0.68947,-1.8901 -1.42375,-3.7584 -2.20154,-5.6035 -0.77777,-1.84499 -1.59922,-3.6669996 -2.4628,-5.4643996 -0.8636,-1.7974 -1.76948,-3.5703 -2.71624,-5.31749 -0.94681,-1.74719995 -1.93436,-3.46891 -2.96187,-5.16341 -1.02751,-1.6945 -2.09527,-3.3616 -3.20091,-5.0009 -1.10561,-1.6392 -2.24956,-3.2502004 -3.43082,-4.8317004 -1.18123,-1.5814 -2.39985,-3.1336 -3.65419,-4.6547 -1.25428,-1.5211 -2.54423,-3.0117 -3.86905,-4.4699 -1.32485,-1.4582 -2.68404,-2.8838 -4.07681,-4.27671 -1.39282,-1.3928 -2.81903,-2.7525 -4.27725,-4.0774 -1.45825,-1.3248 -2.94879,-2.6148 -4.4699,-3.8691 -1.52114,-1.2543 -3.07324,-2.4729 -4.65474,-3.6542 -1.58144,-1.1812 -3.19243,-2.3252 -4.83168,-3.4309 -1.63926,-1.1056 -3.30634,-2.1727 -5.00087,-3.2002 -1.69452,-1.0275 -3.41619,-2.0157 -5.16339,-2.9625 -1.74726,-0.9468 -3.52015,-1.8527 -5.31755,-2.7163 -1.79739,-0.8636 -3.61937,-1.6844 -5.46441,-2.4622 -1.84502,-0.7778 -3.71337,-1.5121 -5.603476,-2.2016 -1.8901,-0.6894 -3.80203,-1.3344 -5.73468,-1.933 -1.93268,-0.5987 -3.8861,-1.1509 -5.85875,-1.6561 -1.97263,-0.5053 -3.9642,-0.9634 -5.97429,-1.3726 -2.0101,-0.4093 -4.03829,-0.7699 -6.08328,-1.0806 -2.04501,-0.3108 -4.10704,-0.5717 -6.18442,-0.7815 -2.07738,-0.2096 -4.1705,-0.3682 -6.27772,-0.4743 -2.10719,-0.1062 -4.22875,-0.1596 -6.36322,-0.1596 z m 0,85.46051 c -1.06723,0 -2.12738,0.027 -3.18098,0.08 -1.0536,0.053 -2.10018,0.1323 -3.13888,0.2372 -1.03869,0.1049 -2.06998,0.23541 -3.0925,0.39071 -1.02251,0.15539 -2.03628,0.33539 -3.04135,0.53999 -2.01009,0.4092 -3.98385,0.91611 -5.91651,1.5146 -1.93263,0.59871 -3.82406,1.2896 -5.6691,2.0673 -1.84501,0.7778 -3.64371,1.64251 -5.39096,2.5893 -1.74721,0.9468 -3.44348,1.9754 -5.08273,3.08101 -1.63927,1.10569 -3.22149,2.2885 -4.7426,3.54278 -1.52114,1.25442 -2.98077,2.58051 -4.37359,3.97331 -1.39278,1.39281 -2.71891,2.85181 -3.97321,4.373 -1.25435,1.52109 -2.4372,3.10391 -3.54284,4.74321 -1.10564,1.6392 -2.13425,3.3355 -3.08108,5.0827 -0.94677,1.74721 -1.81142,3.54539 -2.5892,5.39039 -0.77781,1.84501 -1.4687,3.73641 -2.0673,5.66901 -0.59861,1.9327 -1.10481,3.9071 -1.51406,5.9172 -0.20461,1.00499 -0.38522,2.01879 -0.54059,3.0413 -0.15537,1.02248 -0.28585,2.05388 -0.39069,3.09258 -0.10486,1.03863 -0.18413,2.0846 -0.2372,3.13823 -0.0532,1.05359 -0.08,2.11439 -0.08,3.18158 V 212.55411 a 184.93633,184.93633 0 0 0 30.82272,7.90189 V 101.34608 c 0,-1.06719 0.0541,-2.121193 0.15896,-3.159893 0.10484,-1.0387 0.26071,-2.06219 0.46532,-3.06721 0.20464,-1.0051 0.45803,-1.99199 0.75736,-2.95828 0.29928,-0.96631 0.64473,-1.91169 1.03362,-2.83421 0.38889,-0.92261 0.82091,-1.82219 1.29431,-2.69579 0.4734,-0.8736 0.98771,-1.72151 1.54052,-2.54111 0.55284,-0.8196 1.14457,-1.61071 1.77174,-2.3713 0.62713,-0.7606 1.29018,-1.49069 1.98659,-2.1871 0.69641,-0.69639 1.42594,-1.35949 2.18648,-1.9866 0.76059,-0.6272 1.55167,-1.2183 2.37131,-1.77109 0.81965,-0.5529 1.66747,-1.0672 2.54108,-1.54059 0.87363,-0.47342 1.77329,-0.90602 2.69577,-1.29493 0.92252,-0.38888 1.86793,-0.73369 2.83428,-1.03298 0.96632,-0.2993 1.95379,-0.55269 2.95884,-0.7574 1.00505,-0.2046 2.02794,-0.3605 3.06663,-0.4653 1.03868,-0.1049 2.09269,-0.15891 3.15992,-0.15891 1.06723,0 2.12186,0.054 3.16053,0.15891 1.0387,0.1048 2.06158,0.2607 3.06665,0.4653 1.00502,0.20471 1.99192,0.4581 2.95823,0.7574 0.96634,0.29929 1.91233,0.6441 2.83488,1.03298 0.92249,0.38891 1.82155,0.82151 2.69515,1.29493 0.87363,0.47339 1.72143,0.98769 2.54108,1.54059 0.81963,0.55279 1.61134,1.14389 2.37191,1.77109 0.76055,0.62711 1.49006,1.29021 2.18647,1.9866 0.69643,0.69641 1.35948,1.4265 1.98662,2.1871 0.6272,0.76059 1.2183,1.5517 1.7711,2.3713 0.55284,0.8196 1.06717,1.66751 1.54056,2.54111 0.47339,0.8736 0.90601,1.77318 1.29492,2.69579 0.38886,0.92252 0.73433,1.8679 1.03362,2.83421 0.2993,0.96629 0.55269,1.95318 0.75732,2.95828 0.20466,1.00502 0.36052,2.02851 0.46538,3.06721 0.10485,1.0387 0.1583,2.092703 0.1583,3.159893 v 119.01551 a 184.93633,184.93633 0 0 0 30.822686,-7.96999 V 84.708497 c 0,-1.0673 -0.0262,-2.12802 -0.0795,-3.18161 -0.053,-1.0536 -0.13232,-2.0996 -0.23717,-3.13831 -0.10486,-1.0387 -0.23532,-2.06999 -0.39071,-3.09247 -0.15539,-1.02251 -0.33597,-2.03632 -0.5406,-3.04141 -0.40923,-2.0101 -0.91543,-3.9845 -1.51405,-5.91709 -0.5986,-1.93263 -1.2895,-3.82411 -2.06727,-5.66912 -0.77782,-1.845 -1.64246,-3.64311 -2.58924,-5.39031 -0.94681,-1.74728 -1.97604,-3.4435 -3.08168,-5.08278 -1.10564,-1.6392 -2.28788,-3.22212 -3.54222,-4.74321 -1.25431,-1.52109 -2.58043,-2.98019 -3.97325,-4.373 -1.392756,-1.3928 -2.852436,-2.71889 -4.373526,-3.9732 -1.52114,-1.2543 -3.10399,-2.4372 -4.74321,-3.5428 -1.63928,-1.1057 -3.33492,-2.1343 -5.08215,-3.0811 -1.74723,-0.94679 -3.54594,-1.81139 -5.39099,-2.5892 -1.84502,-0.7778 -3.73642,-1.46869 -5.66907,-2.0673 -1.93264,-0.59859 -3.90641,-1.1054 -5.91653,-1.5147 -1.00505,-0.2046 -2.01882,-0.3846 -3.04133,-0.53999 -1.02251,-0.1553 -2.0538,-0.28581 -3.0925,-0.39061 -1.03871,-0.1049 -2.08529,-0.1842 -3.13886,-0.2373 -1.05357,-0.053 -2.11439,-0.08 -3.18162,-0.08 z"
       id="path5395-3-0"
       inkscape:connector-curvature="0"
       inkscape:export-filename="C:\Users\ericc\Documents\GitHub\attackathon\AttackathonLogoColorWhiteBG.png"
       inkscape:export-xdpi="206.02"
       inkscape:export-ydpi="206.02" />
  </g>
</svg>
