<?xml version="1.0" standalone="no"?>
<!DOCTYPE svg PUBLIC "-//W3C//DTD SVG 20010904//EN"
 "http://www.w3.org/TR/2001/REC-SVG-20010904/DTD/svg10.dtd">
<svg version="1.0" xmlns="http://www.w3.org/2000/svg"
 width="3000.000000pt" height="3000.000000pt" viewBox="0 0 3000.000000 3000.000000"
 preserveAspectRatio="xMidYMid meet">
<metadata>
Created by potrace 1.11, written by Peter Selinger 2001-2013
</metadata>
<g transform="translate(0.000000,3000.000000) scale(0.100000,-0.100000)"
fill="#000000" stroke="none">
<path d="M14528 29875 c-2 -1 -77 -6 -168 -9 -170 -7 -265 -12 -382 -21 -37
-3 -100 -8 -140 -11 -72 -5 -103 -8 -223 -19 -33 -3 -82 -8 -110 -10 -27 -3
-68 -7 -90 -10 -22 -2 -67 -7 -100 -10 -33 -3 -67 -8 -75 -10 -8 -2 -45 -6
-82 -10 -37 -3 -77 -8 -90 -10 -28 -4 -112 -16 -151 -21 -60 -7 -117 -16 -237
-35 -69 -11 -138 -22 -155 -25 -16 -2 -91 -15 -165 -29 -74 -13 -151 -27 -170
-30 -19 -3 -42 -8 -50 -10 -8 -2 -31 -7 -50 -10 -19 -3 -89 -18 -155 -32 -66
-14 -127 -26 -135 -28 -8 -2 -54 -12 -102 -24 -48 -11 -98 -22 -110 -25 -13
-2 -52 -12 -88 -21 -36 -9 -76 -19 -90 -22 -65 -12 -630 -165 -710 -193 -14
-4 -65 -20 -115 -35 -105 -32 -424 -137 -575 -190 -277 -96 -773 -291 -958
-376 -35 -16 -66 -29 -69 -29 -3 0 -38 -15 -77 -34 -39 -18 -134 -62 -211 -96
-148 -67 -631 -308 -775 -386 -72 -39 -202 -111 -400 -222 -132 -74 -563 -338
-690 -422 -8 -6 -65 -43 -126 -83 -272 -181 -540 -372 -819 -585 -165 -126
-390 -305 -405 -322 -3 -3 -18 -16 -35 -29 -30 -22 -51 -41 -209 -175 -417
-355 -934 -855 -1306 -1265 -47 -52 -90 -99 -96 -105 -23 -24 -161 -183 -275
-316 -107 -125 -202 -241 -387 -475 -132 -167 -359 -477 -527 -720 -109 -159
-367 -552 -399 -610 -9 -16 -48 -82 -87 -145 -39 -63 -81 -133 -93 -155 -13
-22 -38 -65 -56 -95 -95 -159 -299 -540 -431 -805 -82 -165 -150 -301 -150
-302 0 -2 -16 -38 -36 -80 -121 -265 -277 -630 -358 -838 -15 -38 -38 -99 -52
-135 -27 -68 -35 -89 -103 -280 -213 -594 -425 -1333 -536 -1870 -9 -41 -18
-83 -20 -92 -13 -58 -32 -153 -40 -203 -3 -16 -9 -46 -14 -65 -5 -19 -21 -105
-36 -190 -14 -85 -27 -162 -29 -170 -2 -13 -7 -45 -20 -130 -3 -14 -12 -72
-21 -130 -9 -58 -17 -116 -19 -130 -3 -24 -29 -227 -40 -315 -3 -22 -7 -56
-10 -75 -2 -19 -7 -61 -10 -92 -5 -60 -14 -148 -20 -208 -2 -19 -6 -71 -10
-115 -3 -44 -8 -93 -10 -110 -3 -26 -9 -109 -20 -300 -26 -441 -26 -1358 0
-1715 2 -25 6 -92 10 -150 3 -58 8 -121 10 -140 2 -19 7 -71 10 -115 5 -75 11
-141 20 -225 2 -19 7 -62 10 -95 3 -33 10 -94 15 -135 5 -41 12 -97 15 -125 3
-27 7 -61 9 -75 2 -14 7 -47 11 -75 11 -86 14 -107 34 -240 11 -71 23 -148 26
-170 8 -52 40 -236 61 -345 9 -47 18 -95 20 -107 5 -28 9 -47 29 -148 23 -111
23 -112 39 -185 8 -36 24 -105 35 -155 36 -166 181 -723 221 -850 5 -16 26
-84 45 -150 113 -378 355 -1061 460 -1300 7 -16 29 -70 50 -120 20 -49 42
-104 50 -121 8 -16 36 -82 63 -145 28 -63 71 -158 96 -212 25 -54 46 -100 46
-103 0 -8 299 -605 355 -709 194 -362 468 -825 662 -1120 l73 -110 0 3995 c1
2197 3 4051 5 4120 7 232 17 419 31 605 10 134 24 289 29 325 2 14 6 54 10 90
3 36 8 79 10 95 2 17 6 59 10 95 3 36 8 72 10 80 2 8 7 38 10 66 3 28 7 60 9
71 3 11 7 44 11 73 4 29 9 62 11 74 2 11 6 38 9 61 3 22 12 76 20 120 8 44 18
98 21 120 12 77 73 383 103 513 17 72 32 141 35 154 2 13 12 52 21 88 8 36 18
74 20 85 12 52 117 441 121 447 3 5 7 16 9 25 11 59 197 633 225 698 5 11 27
71 50 134 40 110 98 263 125 326 7 17 41 98 76 180 126 301 382 841 482 1017
14 24 41 75 62 113 52 97 134 243 160 285 12 19 43 71 69 115 177 303 438 696
693 1044 197 269 507 647 767 936 331 367 842 864 1151 1120 33 28 62 53 65
56 3 3 32 28 65 54 33 27 62 51 65 54 6 8 146 120 181 146 15 11 82 63 150
116 274 213 696 505 994 689 341 211 617 365 970 544 464 235 898 421 1440
618 44 16 87 31 95 33 8 2 85 27 170 55 263 88 776 237 910 265 8 2 65 15 125
29 206 49 636 136 790 159 17 3 57 10 90 16 59 10 76 13 165 26 25 4 56 8 70
10 14 2 66 9 115 15 50 6 101 13 115 15 14 2 50 6 80 10 30 3 71 8 90 10 61 8
123 14 200 20 41 4 91 8 110 10 332 31 583 40 1080 40 418 0 671 -6 820 -20
25 -2 86 -7 135 -10 50 -4 106 -8 125 -10 19 -2 73 -7 119 -10 47 -4 92 -8
100 -10 9 -1 50 -6 91 -10 106 -10 130 -13 170 -19 19 -2 58 -8 85 -11 28 -3
61 -8 75 -10 14 -2 61 -9 105 -15 119 -17 152 -22 345 -56 251 -43 493 -92
650 -130 36 -9 76 -18 89 -21 27 -5 274 -67 425 -108 277 -74 920 -282 1081
-350 17 -6 86 -34 155 -60 142 -54 494 -203 625 -264 48 -23 89 -41 91 -41 21
0 645 -320 812 -416 52 -30 95 -54 98 -54 21 0 623 -375 834 -520 431 -297
749 -539 1100 -839 458 -392 951 -883 1336 -1330 16 -19 34 -39 39 -45 29 -31
173 -206 261 -316 414 -518 789 -1071 1129 -1668 192 -336 449 -860 612 -1247
30 -71 61 -143 68 -160 39 -88 154 -396 231 -615 66 -187 186 -563 199 -624 3
-10 9 -33 15 -51 6 -18 13 -41 15 -51 2 -10 23 -86 45 -169 59 -220 125 -504
174 -750 40 -197 97 -529 112 -643 3 -26 7 -54 10 -63 2 -9 6 -39 9 -66 2 -28
7 -64 9 -79 3 -16 8 -54 12 -84 3 -30 7 -66 9 -80 2 -14 6 -54 10 -90 3 -36 8
-81 10 -100 8 -67 14 -135 20 -205 3 -38 8 -97 11 -130 3 -33 7 -91 9 -130 2
-38 6 -128 10 -200 13 -265 14 -480 14 -4390 l1 -3990 66 100 c76 116 227 359
298 477 74 124 266 459 266 463 0 2 15 30 34 62 204 354 598 1191 771 1638
106 275 147 381 149 390 2 6 6 17 9 25 42 98 278 820 292 893 2 9 6 20 8 25 8
12 139 487 152 552 2 8 17 72 34 142 35 142 107 465 116 518 3 19 8 42 10 50
2 8 7 30 10 48 3 18 12 63 19 100 8 37 17 87 21 112 3 25 8 52 10 60 2 8 7 29
9 45 3 17 12 71 21 120 9 50 18 106 20 125 3 19 7 46 9 60 3 14 8 45 11 70 4
25 12 88 20 140 12 84 19 138 31 230 1 14 6 52 9 85 3 33 8 71 10 85 3 14 7
52 10 85 5 57 11 117 20 195 2 19 7 76 11 125 10 123 10 135 19 255 3 58 8
125 10 150 26 318 26 1283 0 1700 -2 36 -6 112 -10 170 -3 58 -8 119 -10 135
-2 17 -7 66 -10 110 -10 138 -14 185 -35 375 -19 169 -23 203 -34 280 -3 14
-7 52 -11 85 -4 32 -8 66 -10 75 -1 8 -6 38 -9 65 -4 28 -9 57 -11 65 -2 8 -6
38 -10 65 -3 28 -10 75 -15 105 -5 30 -12 69 -14 85 -15 95 -38 220 -41 225
-1 3 -6 25 -9 50 -3 25 -17 99 -30 165 -14 66 -27 131 -30 145 -24 120 -73
336 -122 540 -44 179 -135 512 -191 700 -56 190 -197 620 -257 781 -88 243
-108 295 -116 314 -5 11 -39 97 -76 190 -36 94 -75 188 -84 210 -10 22 -36 83
-58 135 -37 88 -107 243 -192 430 -71 154 -322 651 -409 809 -50 90 -91 166
-91 167 0 2 -18 33 -40 69 -22 36 -40 67 -40 69 0 2 -41 73 -92 157 -50 85
-97 165 -105 179 -8 14 -32 52 -53 85 -22 33 -47 74 -56 90 -9 17 -48 77 -86
134 -37 57 -68 105 -68 106 0 5 -260 385 -338 495 -164 228 -390 527 -539 710
-360 444 -662 778 -1078 1195 -235 235 -457 446 -597 567 -13 11 -39 34 -58
51 -19 18 -66 59 -105 92 -38 33 -83 72 -100 87 -54 46 -180 152 -220 183 -21
17 -43 35 -49 40 -12 12 -188 152 -256 205 -248 190 -603 450 -735 536 -27 18
-83 56 -123 84 -40 27 -77 50 -82 50 -6 0 -10 5 -10 10 0 6 -6 10 -14 10 -8 0
-16 4 -18 8 -4 11 -610 392 -623 392 -2 0 -64 36 -139 80 -76 44 -139 80 -141
80 -2 0 -36 19 -77 42 -125 72 -263 144 -548 286 -255 127 -337 167 -510 245
-36 16 -87 39 -115 52 -191 88 -706 295 -990 397 -320 115 -881 294 -1075 342
-60 15 -371 98 -395 105 -27 8 -47 13 -110 25 -11 2 -56 13 -100 24 -66 17
-266 61 -341 76 -113 23 -335 66 -359 70 -57 11 -200 36 -239 42 -21 3 -48 7
-60 10 -25 5 -265 41 -321 49 -22 3 -58 8 -80 10 -46 6 -108 14 -145 20 -14 2
-54 7 -90 10 -36 4 -78 9 -95 11 -16 2 -52 6 -80 9 -27 3 -66 7 -85 10 -19 2
-69 7 -110 10 -41 3 -95 8 -120 10 -25 3 -81 7 -125 10 -44 4 -96 8 -115 10
-19 2 -102 6 -185 10 -82 4 -166 9 -185 11 -40 5 -1137 14 -1142 9z"/>
<path d="M14837 23054 c-1 -1 -92 -5 -202 -8 -110 -4 -225 -9 -255 -11 -161
-12 -220 -16 -265 -20 -85 -7 -179 -16 -205 -20 -14 -2 -54 -7 -90 -10 -100
-10 -241 -29 -301 -40 -9 -2 -40 -6 -70 -10 -30 -4 -56 -8 -59 -10 -3 -2 -27
-6 -55 -9 -74 -10 -347 -62 -530 -102 -142 -31 -216 -50 -440 -109 -152 -40
-426 -124 -595 -182 -102 -35 -189 -65 -195 -67 -5 -2 -23 -8 -38 -14 -16 -7
-31 -12 -34 -12 -7 0 -175 -66 -220 -86 -17 -8 -34 -14 -38 -14 -3 0 -31 -11
-61 -25 -30 -14 -57 -25 -60 -25 -3 0 -20 -6 -37 -14 -18 -8 -104 -47 -192
-87 -286 -128 -573 -273 -850 -429 -227 -128 -557 -338 -830 -528 -209 -146
-749 -574 -835 -662 -8 -8 -35 -33 -60 -54 -255 -221 -666 -642 -930 -952
-128 -149 -399 -492 -470 -594 -8 -12 -37 -52 -64 -88 -43 -59 -332 -495 -363
-547 -7 -11 -44 -74 -84 -140 -450 -744 -842 -1668 -1066 -2515 -8 -30 -18
-68 -23 -85 -14 -46 -87 -363 -115 -500 -8 -38 -17 -81 -20 -95 -10 -45 -74
-424 -79 -470 -3 -25 -8 -60 -11 -78 -24 -175 -40 -317 -50 -437 -3 -44 -8
-93 -10 -110 -2 -16 -7 -77 -10 -135 -4 -58 -9 -125 -13 -150 -3 -25 -7 -2261
-8 -4970 l-3 -4925 102 -87 c56 -49 113 -97 127 -109 14 -11 40 -34 58 -51 51
-45 247 -206 432 -353 417 -331 986 -730 1408 -986 209 -127 365 -219 368
-216 2 2 5 2356 7 5233 2 2876 6 5249 9 5274 3 25 9 86 13 135 4 50 8 108 10
130 2 22 6 58 8 80 6 39 13 96 22 180 3 22 7 51 10 65 3 14 7 41 9 60 39 313
151 795 276 1185 72 222 186 528 250 671 140 309 207 446 318 647 224 404 441
727 738 1097 51 63 105 129 119 145 15 17 52 59 83 95 221 253 577 599 822
800 30 25 57 47 60 50 50 55 623 470 648 470 6 0 12 3 14 8 2 6 80 58 163 109
199 122 674 373 825 437 25 11 70 30 100 43 306 136 854 323 1135 388 6 2 51
13 100 25 104 25 119 28 160 36 17 3 46 9 65 14 19 5 85 18 145 29 126 23 132
24 280 46 61 9 121 18 135 20 83 12 158 20 290 30 47 4 96 8 109 10 114 18
774 25 1006 11 216 -14 389 -29 475 -41 14 -2 46 -7 72 -10 240 -27 720 -119
938 -179 266 -73 651 -197 736 -236 23 -10 54 -22 70 -26 16 -4 100 -38 189
-76 88 -39 183 -79 210 -91 148 -62 517 -255 725 -380 196 -116 584 -376 665
-444 6 -5 46 -36 90 -70 373 -284 813 -705 1136 -1088 129 -153 159 -191 248
-310 45 -60 88 -117 94 -126 47 -61 197 -284 266 -393 231 -365 465 -820 616
-1201 26 -66 53 -133 60 -150 27 -62 121 -341 178 -530 81 -264 188 -748 222
-1005 3 -25 8 -56 10 -70 6 -37 13 -87 20 -155 4 -33 9 -73 11 -90 16 -137 30
-330 39 -550 2 -49 4 -2386 4 -5193 l1 -5104 33 20 c17 11 48 29 67 40 31 17
165 97 313 188 46 27 304 191 337 214 289 195 410 276 430 292 14 10 52 38 85
62 199 142 563 419 679 517 12 9 75 61 141 115 66 54 122 101 125 104 3 3 52
45 110 95 58 49 122 105 143 124 l38 36 -4 4925 c-2 2709 -6 4943 -9 4965 -4
22 -9 92 -13 155 -3 63 -8 126 -10 140 -3 14 -7 59 -10 100 -3 41 -7 86 -9
100 -3 14 -8 57 -11 95 -3 39 -10 97 -15 130 -5 33 -12 80 -15 105 -3 25 -10
74 -16 110 -5 36 -14 94 -19 130 -28 186 -110 586 -165 800 -2 8 -9 35 -15 60
-6 25 -15 61 -20 80 -11 46 -37 141 -57 210 -9 30 -18 60 -19 65 -10 52 -137
431 -233 696 -113 313 -369 877 -539 1189 -54 99 -172 310 -201 358 -14 24
-35 58 -46 77 -118 201 -370 576 -544 810 -74 99 -137 182 -140 185 -3 3 -19
23 -36 45 -16 22 -31 42 -35 45 -3 3 -40 48 -82 100 -42 52 -89 109 -105 127
-15 17 -37 42 -47 55 -37 44 -177 202 -274 306 -140 152 -499 502 -642 628
-25 21 -50 44 -56 49 -40 37 -199 172 -265 226 -118 97 -165 134 -304 238 -83
62 -157 118 -165 125 -36 28 -314 218 -405 278 -519 338 -975 580 -1610 853
-16 7 -73 30 -125 50 -52 21 -109 44 -126 51 -142 62 -688 241 -939 309 -190
51 -300 79 -442 110 -88 19 -167 37 -175 39 -7 3 -29 7 -48 10 -19 3 -68 12
-107 20 -40 9 -85 18 -100 20 -16 2 -48 8 -73 11 -25 4 -54 9 -65 11 -18 4
-251 40 -320 49 -95 13 -260 32 -350 40 -38 4 -88 8 -110 11 -186 18 -564 35
-848 38 -109 0 -199 0 -200 0z"/>
<path d="M15008 16125 c-1 -1 -91 -6 -198 -9 -107 -3 -204 -8 -215 -10 -11 -2
-63 -7 -115 -11 -52 -4 -98 -9 -101 -11 -3 -1 -31 -6 -63 -9 -31 -4 -67 -8
-79 -11 -12 -2 -40 -7 -62 -10 -22 -3 -74 -13 -115 -21 -41 -8 -88 -17 -105
-20 -152 -24 -599 -160 -820 -249 -125 -50 -107 -43 -280 -125 -71 -33 -143
-68 -160 -75 -88 -42 -375 -214 -503 -301 -180 -124 -441 -327 -544 -424 -423
-402 -673 -705 -933 -1134 -74 -123 -235 -430 -283 -540 -63 -147 -88 -210
-132 -329 -105 -289 -183 -589 -235 -910 -24 -152 -28 -184 -40 -311 -4 -38
-9 -81 -13 -95 -4 -14 -8 -2442 -9 -5396 l-3 -5372 72 -26 c330 -119 1179
-365 1418 -411 8 -2 33 -8 55 -13 22 -6 51 -13 65 -16 14 -3 34 -7 45 -10 61
-14 324 -70 410 -87 214 -42 428 -79 432 -75 1 1 4 2232 6 4957 2 2725 6 4972
11 4994 4 22 14 81 22 130 27 160 91 392 140 502 8 17 14 34 14 37 0 12 97
206 143 286 295 513 758 901 1317 1103 271 98 494 137 805 142 246 4 385 -8
580 -51 39 -9 79 -17 89 -20 51 -10 231 -70 321 -107 207 -84 441 -220 598
-346 196 -158 323 -291 494 -516 8 -10 33 -48 96 -147 46 -70 177 -330 177
-350 0 -8 4 -18 9 -23 13 -15 78 -213 106 -323 36 -144 62 -308 70 -447 2 -27
3 -2247 4 -4933 l1 -4883 48 6 c26 4 55 8 64 11 19 6 36 9 98 19 60 10 61 10
235 45 83 17 162 32 174 35 174 33 732 172 971 240 251 73 310 91 618 191
l292 96 -3 5366 c-1 2952 -5 5376 -9 5388 -3 11 -9 58 -13 105 -4 46 -8 91
-10 100 -2 9 -6 38 -9 65 -4 27 -8 63 -10 79 -9 70 -67 369 -80 413 -3 9 -7
28 -10 42 -16 94 -150 519 -196 625 -5 11 -32 76 -61 145 -50 117 -164 353
-227 465 -158 285 -387 614 -577 829 -249 283 -491 511 -765 720 -521 397
-1127 692 -1764 856 -142 37 -344 80 -446 96 -25 3 -54 8 -65 10 -68 10 -179
24 -235 29 -36 3 -83 8 -105 10 -22 2 -116 7 -210 10 -93 4 -175 8 -182 10 -6
2 -13 2 -15 0z"/>
</g>
</svg>
