<?xml version="1.0" encoding="UTF-8" standalone="no"?>
<!-- Created with Inkscape (http://www.inkscape.org/) -->

<svg
   xmlns:dc="http://purl.org/dc/elements/1.1/"
   xmlns:cc="http://creativecommons.org/ns#"
   xmlns:rdf="http://www.w3.org/1999/02/22-rdf-syntax-ns#"
   xmlns:svg="http://www.w3.org/2000/svg"
   xmlns="http://www.w3.org/2000/svg"
   xmlns:sodipodi="http://sodipodi.sourceforge.net/DTD/sodipodi-0.dtd"
   xmlns:inkscape="http://www.inkscape.org/namespaces/inkscape"
   width="369.87271mm"
   height="367.00729mm"
   viewBox="0 0 369.87271 367.00729"
   version="1.1"
   id="svg6969"
   inkscape:version="0.92.3 (2405546, 2018-03-11)"
   sodipodi:docname="AttackathonLogoColor.svg">
  <defs
     id="defs6963" />
  <sodipodi:namedview
     id="base"
     pagecolor="#ffffff"
     bordercolor="#666666"
     borderopacity="1.0"
     inkscape:pageopacity="0.0"
     inkscape:pageshadow="2"
     inkscape:zoom="0.35"
     inkscape:cx="651.82918"
     inkscape:cy="436.41425"
     inkscape:document-units="mm"
     inkscape:current-layer="layer1"
     showgrid="false"
     fit-margin-top="0"
     fit-margin-left="0"
     fit-margin-right="0"
     fit-margin-bottom="0"
     inkscape:window-width="1842"
     inkscape:window-height="1051"
     inkscape:window-x="69"
     inkscape:window-y="-9"
     inkscape:window-maximized="1" />
  <metadata
     id="metadata6966">
    <rdf:RDF>
      <cc:Work
         rdf:about="">
        <dc:format>image/svg+xml</dc:format>
        <dc:type
           rdf:resource="http://purl.org/dc/dcmitype/StillImage" />
        <dc:title></dc:title>
      </cc:Work>
    </rdf:RDF>
  </metadata>
  <g
     inkscape:label="Layer 1"
     inkscape:groupmode="layer"
     id="layer1"
     transform="translate(286.23397,102.70603)">
    <path
       style="opacity:1;fill:#133ef1;fill-opacity:1;stroke:none;stroke-width:60.37122345;stroke-linecap:butt;stroke-linejoin:bevel;stroke-miterlimit:4;stroke-dasharray:none;stroke-opacity:1;paint-order:markers fill stroke"
       d="M -101.29762,-102.70603 A 184.93635,184.93635 0 0 0 -286.23397,82.231169 184.93635,184.93635 0 0 0 -255.41124,184.25677 V 88.502869 c 0,-2.6681 0.0672,-5.3204 0.19989,-7.9544 0.13261,-2.6339 0.3308,-5.2498 0.59296,-7.8465 0.26216,-2.5967 0.58862,-5.1741 0.97704,-7.7304 0.38844,-2.5562 0.83875,-5.0913 1.35031,-7.6039 0.51155,-2.5126 1.08423,-5.0027 1.71572,-7.4685 0.63151,-2.4658 1.32205,-4.9076 2.0703,-7.3234 0.74826,-2.4158 1.55403,-4.8061 2.41586,-7.1687 0.86183,-2.3626 1.77952,-4.6974 2.75175,-7.0038 0.97225,-2.3062 1.99921,-4.5835 3.07868,-6.8303 1.07947,-2.2468 2.2118,-4.4634 3.39531,-6.6475 1.1835,-2.184 2.41798,-4.336 3.70232,-6.4541 1.28438,-2.1182 2.61832,-4.2022 4.00036,-6.2513 1.382,-2.04909995 2.81213,-4.0631 4.28868,-6.04 1.47656,-1.9768 3.00014,-3.9164 4.56802,-5.817799 1.5679,-1.901401 3.1805,-3.764499 4.83651,-5.587301 1.65605,-1.822799 3.35501,-3.605398 5.09599,-5.346398 1.74102,-1.741001 3.52425,-3.440602 5.34704,-5.0966 1.82279,-1.656001 3.68522,-3.2687 5.58662,-4.836502 1.90138,-1.567899 3.84155,-3.090899 5.81837,-4.567499 1.97684,-1.4766 3.99024,-2.906699 6.03933,-4.2887 2.04907,-1.382102 4.13369,-2.716001 6.25184,-4.0004 2.11812,-1.2843 4.27005,-2.519399 6.45412,-3.702902 2.184,-1.183597 4.39997,-2.315898 6.64674,-3.395398 2.24676,-1.0795 4.52407,-2.1058 6.83037,-3.078101 2.3063,-0.972198 4.6417,-1.8899 7.00434,-2.751699 2.36264,-0.861901 4.75289,-1.668301 7.1687,-2.4165 2.41583,-0.7483 4.8576,-1.438802 7.32338,-2.070301 2.46582,-0.6315 4.95528,-1.2036 7.46791,-1.715101 2.51262,-0.511598 5.04827,-0.962498 7.60452,-1.350899 2.55629,-0.388501 5.13365,-0.714399 7.73037,-0.9765 2.59673,-0.262099 5.21256,-0.460298 7.84654,-0.593 2.63402,-0.132599 5.28565,-0.1998 7.95373,-0.1998 2.668096,0 5.320336,0.067 7.954306,0.1998 2.634,0.132601 5.24983,0.330901 7.84655,0.593 2.59672,0.262101 5.17412,0.587999 7.73036,0.9765 2.55625,0.388401 5.09135,0.839301 7.60395,1.350899 2.51263,0.511501 5.00268,1.083601 7.46848,1.715101 2.46579,0.631499 4.90761,1.322001 7.32339,2.070301 2.41584,0.748199 4.80607,1.554599 7.16874,2.4165 2.36262,0.861799 4.69744,1.779501 7.00372,2.751699 2.30628,0.972301 4.58361,1.998601 6.83037,3.078101 2.24674,1.0795 4.46331,2.211801 6.64736,3.395398 2.18403,1.183503 4.33595,2.418602 6.45406,3.702902 2.1182,1.284399 4.20219,2.618298 6.25128,4.0004 2.04904,1.382001 4.06308,2.8121 6.03991,4.2887 1.97684,1.4766 3.91642,2.9996 5.81779,4.567499 1.90141,1.567802 3.76441995,3.180501 5.58721,4.836502 1.82279,1.655998 3.60542,3.355599 5.34644,5.0966 1.74101,1.741 3.44053,3.523599 5.09658,5.346398 1.65603,1.822802 3.26861,3.6859 4.83653,5.587301 1.5679,1.901399 3.09087,3.840999 4.56743,5.817799 1.47656,1.9769 2.9066,3.99090005 4.28868,6.04 1.38205,2.0491 2.71656,4.1331 4.00093,6.2513 1.28436,2.1181 2.51883,4.2701 3.70234,6.4541 1.1835,2.1841 2.31587,4.4007 3.39531,6.6475 1.07945,2.2468 2.10582,4.5241 3.07809,6.8303 0.97224,2.3064 1.8905,4.6412 2.75233,7.0038 0.86188,2.3627 1.66761,4.7529 2.41588,7.1687 0.74827,2.4158 1.4388,4.8576 2.07029,7.3234 0.6315,2.4658 1.20356,4.9559 1.71513,7.4685 0.51155,2.5126 0.96247,5.0477 1.35088,7.6039 0.38846,2.5563 0.71433,5.1337 0.97647,7.7304 0.26213,2.5967 0.46033,5.2126 0.59299,7.8465 0.13261,2.634 0.19984,5.2863 0.19984,7.9544 V 184.24237 A 184.93635,184.93635 0 0 0 83.638736,82.231169 184.93635,184.93635 0 0 0 -101.29762,-102.70603 Z m 0,84.153699 c -2.13449,0 -4.2554,0.053 -6.3626,0.1596 -2.10718,0.106201 -4.20036,0.264702 -6.27772,0.4743 -2.07739,0.209801 -4.13939,0.470701 -6.18443,0.781502 -2.04499,0.310698 -4.07315,0.671298 -6.08325,1.080598 -2.01012,0.409202 -4.00228,0.867302 -5.97494,1.3726 -1.97264,0.505201 -3.92545,1.0574 -5.8581,1.656102 -1.93266,0.598598 -3.8446,1.243599 -5.73471,1.932998 -1.89011,0.689501 -3.75846,1.423802 -5.60348,2.2016 -1.84502,0.777801 -3.66701,1.598602 -5.4644,2.462202 -1.79741,0.8636 -3.5703,1.769499 -5.31755,2.7163 -1.74721,0.946798 -3.46888,1.934998 -5.1634,2.96249805 -1.69453,1.0275 -3.3622,2.09459995 -5.00147,3.20019995 -1.63924,1.1057 -3.25023,2.2497 -4.83171,3.4309 -1.58146,1.1813 -3.13298,2.3999 -4.6541,3.6542 -1.52112,1.2543 -3.01167,2.5443 -4.4699,3.8691 -1.45825,1.3249 -2.88445,2.6846 -4.27727,4.0774 -1.39278,1.3929 -2.75194,2.8186 -4.07676,4.2768 -1.32485,1.4582 -2.61539,2.9488 -3.86968,4.4699 -1.25435,1.5211 -2.47232,3.0733 -3.65358,4.6547 -1.18125,1.5815 -2.3258,3.1924 -3.43146,4.8317 -1.10564,1.6393 -2.17276,3.3064 -3.20027,5.0009 -1.02748,1.6945 -2.01507,3.4162 -2.96184,5.1634 -0.94682,1.7472 -1.8527,3.5201 -2.71625,5.3175 -0.8636,1.7974 -1.68502,3.6194 -2.46283,5.4644 -0.77779,1.8451 -1.51208,3.7134 -2.20155,5.6035 -0.68944,1.8901 -1.33382,3.8021 -1.93243,5.7347 -0.59861,1.9327 -1.1515,3.8861 -1.65672,5.8587 -0.50518,1.9727 -0.96271,3.9649 -1.37199,5.975 -0.40922,2.01 -0.76982,4.0382 -1.08057,6.0832 -0.31076,2.045 -0.57171,4.1064 -0.78141,6.1838 -0.20969,2.0774 -0.36827,4.1706 -0.47438,6.2778 -0.10618,2.107201 -0.16016,4.228701 -0.16016,6.363201 v 115.0711 a 184.93633,184.93633 0 0 0 30.82275,22.347 v -123.7875 c 0,-1.6009 0.0408,-3.1917 0.12035,-4.7721 0.0796,-1.5804 0.1985,-3.1503 0.35578,-4.7083 0.15726,-1.558 0.35267,-3.1041 0.58572,-4.6378 0.23307,-1.5338 0.5034,-3.0551 0.81033,-4.562701 0.30694,-1.5075 0.65052,-3.0018 1.02942,-4.4813 0.3789,-1.4795 0.79296,-2.9445 1.24194,-4.394 0.44896,-1.4495 0.93253,-2.8832 1.44962,-4.3008 0.51711,-1.4176 1.06797,-2.8188 1.6513,-4.2026 0.58335,-1.3837 1.19928,-2.7504 1.84695,-4.0985 0.64768,-1.348 1.32711,-2.6772 2.0372,-3.9876 0.7101,-1.3104 1.4508,-2.6019 2.22139,-3.8727 0.77063,-1.2709 1.57098,-2.5217 2.4002,-3.7511 0.82925,-1.2295 1.68768,-2.4374 2.57361,-3.6235 0.88591,-1.1861 1.79959,-2.3502 2.74034,-3.4911 0.94073,-1.1408 1.90862,-2.2582 2.90225,-3.3519 0.99363,-1.0937 2.013,-2.1635 3.05758,-3.2081 1.04461,-1.0446 2.11442,-2.0646 3.2081,-3.0582 1.09368,-0.9936 2.21113,-1.9609 3.35196,-2.9017 1.14084,-0.9407 2.30497,-1.8544 3.49106,-2.7403 1.18608,-0.8859 2.39402,-1.7443 3.62348,-2.5736 1.22941,-0.8292 2.48019,-1.6296 3.75109,-2.4002 1.27088,-0.7706 2.56228,-1.5113 3.8727,-2.2214 1.31043,-0.7101 2.64025,-1.3895 3.98831,-2.0372 1.34803,-0.6476 2.71405,-1.2636 4.09785,-1.8469 1.38378,-0.5834 2.78501,-1.1342 4.20261,-1.6514 1.41758,-0.517 2.85184,-1.0006 4.30131,-1.4496 1.4495,-0.4489 2.91401,-0.863 4.39345,-1.2419 1.47948,-0.3789 2.97375,-0.7225 4.48134,-1.0294 1.50757,-0.307 3.02886,-0.5773 4.5626,-0.8103 1.53376,-0.2331 3.07983,-0.4291 4.63787,-0.5864 1.55801,-0.1573 3.12789,-0.2762 4.70828,-0.3558 1.58042,-0.08 3.17126,-0.1198 4.77211,-0.1198 1.600856,0 3.192306,0.04 4.772696,0.1198 1.5804,0.08 3.15026,0.1985 4.70829,0.3558 1.55804,0.1573 3.10411,0.3533 4.63787,0.5864 1.53374,0.233 3.05503,0.5033 4.5626,0.8103 1.50757,0.3069 3.00124,0.6505 4.48072,1.0294 1.4795,0.3789 2.94455,0.793 4.39407,1.2419 1.44946,0.449 2.88375,0.9326 4.30134,1.4496 1.41756,0.5172 2.81883,1.068 4.20258,1.6514 1.38379,0.5833 2.74982,1.1993 4.09785,1.8469 1.34806,0.6477 2.67789,1.3271 3.98832,2.0372 1.31042,0.7101 2.6018,1.4508 3.87271,2.2214 1.27085,0.7706 2.52102,1.571 3.75048,2.4002 1.22946,0.8293 2.43798,1.6877 3.62408,2.5736 1.18612,0.8859 2.3502,1.7996 3.49104,2.7403 1.14083,0.9408 2.25828,1.9081 3.35196,2.9017 1.09369,0.9936 2.16349,2.0136 3.2081,3.0582 1.04461,1.0446 2.06398,2.1144 3.05758,3.2081 0.99363,1.0937 1.96156,2.2111 2.90227,3.3519 0.94074,1.1409 1.85442,2.305 2.74036,3.4911 0.88593,1.1861 1.74373,2.394 2.57295,3.6235 0.82926,1.2294 1.63019,2.4802 2.40082,3.7511 0.77063,1.2708 1.51128,2.5623 2.2214,3.8727 0.71011,1.3104 1.38951,2.6396 2.03718,3.9876 0.64767,1.3481 1.26362,2.7148 1.84695,4.0985 0.58336,1.3838 1.13419,2.785 1.65132,4.2026 0.5171,1.4176 1.00007,2.8513 1.44902,4.3008 0.44894,1.4495 0.86362,2.9145 1.24253,4.394 0.37891,1.4795 0.72253,2.9738 1.02947,4.4813 0.30692,1.507601 0.57721,3.028901 0.81029,4.562701 0.23304,1.5337 0.42846,3.0798 0.58573,4.6378 0.15727,1.558 0.2762,3.1279 0.35581,4.7083 0.0796,1.5804 0.11975,3.1712 0.11975,4.7721 v 123.6323 a 184.93633,184.93633 0 0 0 30.82274,-22.2249 v -115.038 c 0,-2.1345 -0.0533,-4.256 -0.15951,-6.363201 -0.10618,-2.1072 -0.26467,-4.2004 -0.47437,-6.2777 -0.20974,-2.0775 -0.4707,-4.1389 -0.78145,-6.1838 -0.31073,-2.0451 -0.67133,-4.0733 -1.08056,-6.0833 -0.40928,-2.0101 -0.86741,-4.0023 -1.37258,-5.9749 -0.50522,-1.9727 -1.05754,-3.9261 -1.65613,-5.8588 -0.59862,-1.9326 -1.24296,-3.8446 -1.93244,-5.7347 -0.68948,-1.8901 -1.42375,-3.7584 -2.20154,-5.6035 -0.7778,-1.845 -1.59922,-3.667 -2.4628,-5.4644 -0.8636,-1.7974 -1.76948,-3.5703 -2.71624,-5.3175 -0.94681,-1.7472 -1.93437,-3.4689 -2.96188,-5.1634 -1.0275,-1.6945 -2.09526,-3.3616 -3.20090005,-5.0009 -1.10564,-1.6392 -2.24956995,-3.2502 -3.43081995,-4.8317 -1.18124,-1.5814 -2.39985,-3.1336 -3.65419,-4.6547 -1.25428,-1.5211 -2.54423,-3.0117 -3.86906,-4.4699 -1.32487,-1.4582 -2.68403,-2.8838 -4.0768,-4.2768 -1.39282,-1.3928 -2.81903,-2.7525 -4.27726,-4.0774 -1.45825,-1.3248 -2.94878,-2.6148 -4.4699,-3.8691 -1.52114,-1.2543 -3.07323,-2.4729 -4.65473,-3.6542 -1.58144,-1.1812 -3.19243,-2.3252 -4.8317,-3.4309 -1.63924,-1.1056 -3.30632,-2.17269995 -5.00086,-3.20019995 -1.69451,-1.02750005 -3.41618,-2.01570005 -5.16339,-2.96249805 -1.74725,-0.946801 -3.52014,-1.8527 -5.31753,-2.7163 -1.79741,-0.8636 -3.61937,-1.684401 -5.46442,-2.462202 -1.84502,-0.777798 -3.71337,-1.512099 -5.60348,-2.2016 -1.89011,-0.689399 -3.80204,-1.3344 -5.73469,-1.932998 -1.93268,-0.598702 -3.88609,-1.150901 -5.85876,-1.656102 -1.97261,-0.505298 -3.96419,-0.963398 -5.97429,-1.3726 -2.01008,-0.4093 -4.03828,-0.7699 -6.08327,-1.080598 -2.045,-0.310801 -4.10704,-0.571701 -6.18441,-0.781502 -2.07738,-0.209598 -4.17051,-0.3682 -6.27772,-0.4743 -2.10719,-0.106199 -4.22875,-0.1596 -6.363216,-0.1596 z m 0,85.4606 c -1.06724,0 -2.1274,0.027 -3.181,0.08 -1.05359,0.053 -2.10018,0.1323 -3.13887,0.2372 -1.0387,0.1049 -2.06999,0.2354 -3.0925,0.3907 -1.02252,0.1554 -2.03628,0.3354 -3.04136,0.54 -2.01009,0.4092 -3.98385,0.9161 -5.9165,1.5146 -1.93264,0.5987 -3.82406,1.2896 -5.6691,2.0673 -1.84502,0.7778 -3.64371,1.6425 -5.39096,2.5893 -1.74721,0.9468 -3.44348,1.9754 -5.08273,3.081 -1.63928,1.1057 -3.22149,2.2885 -4.7426,3.5428 -1.52114,1.2544 -2.98077,2.5805 -4.37359,3.9733 -1.39278,1.3928 -2.71892,2.8518 -3.97322,4.373 -1.25435,1.5211 -2.43719,3.1039 -3.54283,4.7432 -1.10565,1.6392 -2.13426,3.3355 -3.08108,5.0827 -0.94677,1.747201 -1.81142,3.545401 -2.5892,5.390401 -0.77781,1.845 -1.4687,3.7364 -2.06731,5.669 -0.5986,1.9327 -1.10481,3.9071 -1.51405,5.9172 -0.20462,1.005 -0.38522,2.0188 -0.54059,3.0413 -0.15538,1.0225 -0.28585,2.0539 -0.3907,3.0926 -0.10486,1.0386 -0.18412,2.0846 -0.23719,3.1382 -0.0532,1.0536 -0.08,2.1144 -0.08,3.1816 v 127.84571 a 184.93633,184.93633 0 0 0 30.82272,7.90189 v -119.1099 c 0,-1.0672 0.0541,-2.1212 0.15895,-3.1599 0.10485,-1.0387 0.26072,-2.0622 0.46533,-3.0672 0.20463,-1.0051 0.45803,-1.992 0.75735,-2.9583 0.29928,-0.9663 0.64474,-1.9117 1.03363,-2.8342 0.38889,-0.9226 0.82091,-1.8222 1.29431,-2.6958 0.4734,-0.8736 0.98771,-1.7215 1.54052,-2.5411 0.55284,-0.8196 1.14457,-1.6107 1.77174,-2.3713 0.62713,-0.7606 1.29018,-1.4907 1.98659,-2.1871 0.69641,-0.6964 1.42594,-1.3595 2.18648,-1.9866 0.76058,-0.6272 1.55167,-1.2183 2.37131,-1.7711 0.81965,-0.5529 1.66746,-1.0672 2.54107,-1.5406 0.87363,-0.4734 1.77329,-0.906 2.69578,-1.2949 0.92252,-0.3889 1.86792,-0.7337 2.83428,-1.033 0.96631,-0.2993 1.95378,-0.5527 2.95884,-0.7574 1.00505,-0.2046 2.02793,-0.3605 3.06662,-0.4653 1.03869,-0.1049 2.09269,-0.1589 3.15993,-0.1589 1.06723,0 2.121846,0.054 3.160526,0.1589 1.0387,0.1048 2.06157,0.2607 3.06665,0.4653 1.00503,0.2047 1.99191,0.4581 2.95823,0.7574 0.96633,0.2993 1.91233,0.6441 2.83486,1.033 0.92252,0.3889 1.82156,0.8215 2.69517,1.2949 0.87361,0.4734 1.72144,0.9877 2.54108,1.5406 0.81962,0.5528 1.61133,1.1439 2.3719,1.7711 0.76055,0.6271 1.49007,1.2902 2.18648,1.9866 0.69642,0.6964 1.35947,1.4265 1.98662,2.1871 0.62718,0.7606 1.21829,1.5517 1.7711,2.3713 0.55284,0.8196 1.06715,1.6675 1.54055,2.5411 0.47341,0.8736 0.90601,1.7732 1.29492,2.6958 0.38887,0.9225 0.73432,1.8679 1.03364,2.8342 0.29929,0.9663 0.55267,1.9532 0.75731,2.9583 0.20464,1.005 0.36052,2.0285 0.46537,3.0672 0.10485,1.0387 0.15831,2.0927 0.15831,3.1599 v 119.0155 a 184.93633,184.93633 0 0 0 30.82267,-7.97 v -127.6831 c 0,-1.0673 -0.0263,-2.128 -0.0795,-3.1816 -0.053,-1.0536 -0.13232,-2.0996 -0.23717,-3.1383 -0.10485,-1.0387 -0.23533,-2.07 -0.39071,-3.0925 -0.15538,-1.0225 -0.33597,-2.0363 -0.5406,-3.0414 -0.40923,-2.0101 -0.91543,-3.9845 -1.51404,-5.9171 -0.59861,-1.9326 -1.2895,-3.8241 -2.06729,-5.6691 -0.77781,-1.845 -1.64244,-3.6431 -2.58923,-5.390301 -0.94682,-1.7473 -1.97604,-3.4435 -3.08168,-5.0828 -1.10565,-1.6392 -2.28788,-3.2221 -3.54221,-4.7432 -1.2543,-1.5211 -2.58042,-2.9802 -3.97324,-4.373 -1.39278,-1.3928 -2.85245,-2.7189 -4.37355,-3.9732 -1.52114,-1.2543 -3.10398,-2.4372 -4.74322,-3.5428 -1.63927,-1.1057 -3.3349,-2.1343 -5.08214,-3.0811 -1.74722,-0.9468 -3.54594,-1.8114 -5.39097,-2.5892 -1.84503,-0.7778 -3.73644,-1.4687 -5.66908,-2.0673 -1.93266,-0.5986 -3.90642,-1.1054 -5.91653,-1.5147 -1.00506,-0.2046 -2.01883,-0.3846 -3.04133,-0.54 -1.02252,-0.1553 -2.05382,-0.2858 -3.09251,-0.3906 -1.03869,-0.1049 -2.08529,-0.1842 -3.13887,-0.2373 -1.05357,-0.053 -2.114366,-0.08 -3.181596,-0.08 z"
       id="path5395-3-0-1"
       inkscape:connector-curvature="0"
       inkscape:export-filename="C:\Users\ericc\Documents\GitHub\attackathon\AttackathonLogoColorWhiteBG.png"
       inkscape:export-xdpi="206.02"
       inkscape:export-ydpi="206.02" />
  </g>
</svg>
