<?xml version="1.0" encoding="UTF-8" standalone="no"?>
<!-- Created with Inkscape (http://www.inkscape.org/) -->

<svg
   xmlns:dc="http://purl.org/dc/elements/1.1/"
   xmlns:cc="http://creativecommons.org/ns#"
   xmlns:rdf="http://www.w3.org/1999/02/22-rdf-syntax-ns#"
   xmlns:svg="http://www.w3.org/2000/svg"
   xmlns="http://www.w3.org/2000/svg"
   xmlns:sodipodi="http://sodipodi.sourceforge.net/DTD/sodipodi-0.dtd"
   xmlns:inkscape="http://www.inkscape.org/namespaces/inkscape"
   width="369.87271mm"
   height="367.00729mm"
   viewBox="0 0 369.87271 367.00729"
   version="1.1"
   id="svg6969"
   inkscape:version="0.92.3 (2405546, 2018-03-11)"
   sodipodi:docname="AttackathonLogoWhite.svg">
  <defs
     id="defs6963" />
  <sodipodi:namedview
     id="base"
     pagecolor="#ffffff"
     bordercolor="#666666"
     borderopacity="1.0"
     inkscape:pageopacity="0.0"
     inkscape:pageshadow="2"
     inkscape:zoom="0.35"
     inkscape:cx="651.82918"
     inkscape:cy="436.41425"
     inkscape:document-units="mm"
     inkscape:current-layer="layer1"
     showgrid="false"
     fit-margin-top="0"
     fit-margin-left="0"
     fit-margin-right="0"
     fit-margin-bottom="0"
     inkscape:window-width="1842"
     inkscape:window-height="1051"
     inkscape:window-x="69"
     inkscape:window-y="-9"
     inkscape:window-maximized="1" />
  <metadata
     id="metadata6966">
    <rdf:RDF>
      <cc:Work
         rdf:about="">
        <dc:format>image/svg+xml</dc:format>
        <dc:type
           rdf:resource="http://purl.org/dc/dcmitype/StillImage" />
        <dc:title></dc:title>
      </cc:Work>
    </rdf:RDF>
  </metadata>
  <g
     inkscape:label="Layer 1"
     inkscape:groupmode="layer"
     id="layer1"
     transform="translate(286.23397,102.70603)">
    <path
       style="opacity:1;fill:#ffffff;fill-opacity:1;stroke:none;stroke-width:60.37121964;stroke-linecap:butt;stroke-linejoin:bevel;stroke-miterlimit:4;stroke-dasharray:none;stroke-opacity:1;paint-order:markers fill stroke"
       d="m -101.29763,-102.70598 a 184.93635,184.93635 0 0 0 -184.93631,184.937102 184.93635,184.93635 0 0 0 30.8227,102.025588 V 88.502822 c 0,-2.6681 0.067,-5.3204 0.1999,-7.9544 0.1326,-2.6339 0.3308,-5.2498 0.5929,-7.8465 0.2622,-2.5967 0.5887,-5.1741 0.9771,-7.7304 0.3884,-2.5562 0.8387,-5.0913 1.3503,-7.6039 0.5115,-2.5126 1.0842,-5.0027 1.7157,-7.4685 0.6315,-2.4658 1.3221,-4.907599 2.0703,-7.323401 0.7483,-2.415799 1.554,-4.806098 2.4159,-7.168697 0.8618,-2.362602 1.7795,-4.697402 2.7517,-7.003802 0.9723,-2.306201 1.9992,-4.583498 3.0787,-6.8303 1.0795,-2.2468 2.2118,-4.463299 3.3953,-6.6474 1.1835,-2.184 2.418,-4.336 3.7023,-6.4540996 1.2844,-2.118199 2.6183,-4.2022 4.0004,-6.2513 1.382,-2.04910005 2.8121,-4.0631 4.2887,-6.040001 1.4765,-1.9768 3.0001,-3.916399 4.568,-5.817798 1.5679,-1.9014024 3.1805,-3.7645004 4.8365,-5.5873024 1.656,-1.822799 3.355,-3.605398 5.096,-5.346398 1.741,-1.741001 3.5242,-3.440602 5.347,-5.0966 1.8228,-1.656001 3.6852,-3.2687 5.5866,-4.836502 1.9014,-1.567899 3.8416,-3.090899 5.8184,-4.567499 1.9769,-1.4766 3.9903,-2.906699 6.0393,-4.2887 2.0491,-1.382102 4.1337,-2.716001 6.2519,-4.0004 2.1181,-1.284299 4.27,-2.519398 6.4541,-3.702901 2.184,-1.183597 4.4,-2.315898 6.6467,-3.395398 2.2468,-1.0795 4.5241,-2.1058 6.8304,-3.078101 2.3063,-0.972198 4.6417,-1.8899 7.0044,-2.751699 2.3626,-0.861901 4.7528,-1.668301 7.1687,-2.4165 2.4158,-0.7483 4.8576,-1.438802 7.3233,-2.070301 2.4659,-0.6315 4.9553,-1.2036 7.4679,-1.715101 2.5127,-0.511598 5.0483,-0.962498 7.6046,-1.3509 2.5563,-0.388501 5.1336,-0.714399 7.7303,-0.9765 2.59678,-0.262099 5.2126,-0.460298 7.84658,-0.593 2.63403,-0.132599 5.28565,-0.1998 7.95373,-0.1998 2.668107,0 5.320338,0.067 7.954318,0.1998 2.633991,0.132601 5.24982,0.330901 7.846539,0.593 2.596721,0.262101 5.17412,0.587999 7.73036,0.9765 2.556262,0.388402 5.091351,0.839302 7.603951,1.3509 2.512631,0.511501 5.002681,1.083601 7.468491,1.715101 2.465779,0.631499 4.907601,1.322001 7.323379,2.070301 2.415849,0.748199 4.806082,1.554599 7.16874,2.4165 2.36262,0.861799 4.697441,1.779501 7.003721,2.751699 2.306281,0.972301 4.58361,1.998601 6.830381,3.078101 2.246728,1.0795 4.463309,2.211801 6.647349,3.395398 2.18403,1.183503 4.335962,2.418602 6.454072,3.702901 2.1182,1.284399 4.20219,2.618298 6.25126,4.0004 2.04906,1.382001 4.0631,2.8121 6.0399296,4.2887 1.97684,1.4766 3.91639,2.9996 5.81779,4.567499 1.9014,1.567802 3.76440999,3.180501 5.58721,4.836502 1.82279,1.655998 3.60542,3.355599 5.34641,5.0966 1.74104,1.741 3.4405604,3.523599 5.0966104,5.346398 1.65603,1.822802 3.26861,3.6859 4.83651,5.5873024 1.56789,1.901399 3.09089,3.840998 4.56742,5.817798 1.47659,1.976901 2.90663,3.99090095 4.28868,6.040001 1.38208,2.0491 2.71656,4.133101 4.00095,6.2513 1.28437,2.1180996 2.51884,4.2700996 3.70235,6.4540996 1.18348,2.184101 2.31584,4.4006 3.39529,6.6474 1.07947,2.246802 2.10584,4.524099 3.07808,6.8303 0.97226,2.3064 1.89053,4.6412 2.75236,7.003802 0.86188,2.3627 1.66761,4.752898 2.41588,7.168697 0.74827,2.415802 1.43878,4.857601 2.07026,7.323401 0.63153,2.4658 1.20359,4.9559 1.71516,7.4685 0.51154,2.5126 0.96245,5.0477 1.35088,7.6039 0.38844,2.5563 0.71432,5.1337 0.97647,7.7304 0.26213,2.5967 0.4603,5.2126 0.59299,7.8465 0.13261,2.634 0.19984,5.2863 0.19984,7.9544 V 184.24232 A 184.93635,184.93635 0 0 0 83.638711,82.231122 184.93635,184.93635 0 0 0 -101.29763,-102.70598 Z m 0,84.153701 c -2.13448,0 -4.25539,0.053 -6.3626,0.1596 -2.10718,0.106201 -4.20035,0.264702 -6.27772,0.4743 -2.07739,0.209801 -4.13939,0.470701 -6.18439,0.781502 -2.045,0.310698 -4.0732,0.671298 -6.0833,1.080598 -2.0101,0.409202 -4.0023,0.867302 -5.9749,1.3726 -1.9727,0.505201 -3.9255,1.0574 -5.8581,1.656102 -1.9327,0.598598 -3.8446,1.243599 -5.7347,1.932998 -1.8902,0.689501 -3.7585,1.4238024 -5.6035,2.2016004 -1.845,0.777801 -3.667,1.598602 -5.4644,2.462202 -1.7974,0.8636 -3.5703,1.769499 -5.3176,2.7163 -1.7472,0.946798 -3.4689,1.934999 -5.1634,2.96249995 -1.6945,1.027499 -3.3622,2.09460005 -5.0014,3.20019905 -1.6393,1.105699 -3.2503,2.249699 -4.8318,3.4309 -1.5814,1.181301 -3.1329,2.3999 -4.6541,3.6542 -1.5211,1.2542986 -3.0116,2.5442986 -4.4699,3.8690996 -1.4582,1.324901 -2.8844,2.6846 -4.2772,4.077401 -1.3928,1.392798 -2.752,2.8185 -4.0768,4.276698 -1.3248,1.458201 -2.6154,2.9488 -3.8697,4.4699 -1.2543,1.5211 -2.4723,3.073302 -3.6535,4.654701 -1.1813,1.581499 -2.3258,3.192402 -3.4315,4.831699 -1.1056,1.6393 -2.1728,3.306403 -3.2003,5.0009 -1.0275,1.6945 -2.015,3.416202 -2.9618,5.163402 -0.9468,1.747199 -1.8527,3.520099 -2.7163,5.317499 -0.8636,1.7974 -1.685,3.6194 -2.4628,5.4644 -0.7778,1.8451 -1.5121,3.7134 -2.2015,5.6035 -0.6895,1.8901 -1.3339,3.8021 -1.9325,5.7347 -0.5986,1.9327 -1.1515,3.8861 -1.6567,5.8587 -0.5052,1.9727 -0.9627,3.9649 -1.372,5.975 -0.4092,2.01 -0.7698,4.0382 -1.0806,6.0832 -0.3107,2.045 -0.5717,4.1064 -0.7814,6.1838 -0.2097,2.0774 -0.3682,4.1706 -0.4743,6.2778 -0.1062,2.107198 -0.1602,4.228698 -0.1602,6.363198 v 115.0711 a 184.93633,184.93633 0 0 0 30.8227,22.3471 v -123.7876 c 0,-1.6009 0.041,-3.1917 0.1204,-4.7721 0.08,-1.5804 0.1985,-3.1503 0.3558,-4.7083 0.1572,-1.558 0.3526,-3.1041 0.5857,-4.6378 0.2331,-1.5338 0.5034,-3.0551 0.8103,-4.562698 0.307,-1.5075 0.6505,-3.0018 1.0294,-4.4813 0.3789,-1.4795 0.793,-2.9445 1.242,-4.394 0.4489,-1.4495 0.9325,-2.8832 1.4496,-4.3008 0.5171,-1.4176 1.068,-2.8188 1.6513,-4.2026 0.5834,-1.3837 1.1993,-2.7504 1.847,-4.0985 0.6476,-1.348 1.3271,-2.6772 2.0372,-3.9876 0.7101,-1.3104 1.4508,-2.6019 2.2213,-3.8727 0.7707,-1.2709 1.571,-2.5217 2.4002,-3.7511 0.8293,-1.2295 1.6877,-2.4374 2.5737,-3.6235 0.8859,-1.1861 1.7995,-2.3502 2.7403,-3.4911 0.9407,-1.1408 1.9086,-2.2582 2.9022,-3.3519 0.9937,-1.0937 2.013,-2.1635 3.0576,-3.2081 1.0446,-1.0446 2.1144,-2.0646 3.2081,-3.0582 1.0937,-0.9936 2.2112,-1.9609 3.352,-2.9017 1.1408,-0.9407 2.305,-1.854399 3.491,-2.740298 1.1861,-0.885902 2.3941,-1.7443 3.6235,-2.573602 1.2294,-0.829199 2.4802,-1.629598 3.7511,-2.4002 1.2709,-0.770599 2.5623,-1.5113 3.8727,-2.221399 1.3104,-0.710099 2.6403,-1.389499 3.9883,-2.037199 1.3481,-0.647602 2.7141,-1.263603 4.0979,-1.8469 1.3838,-0.583401 2.785,-1.1342 4.2026,-1.651403 1.4176,-0.516998 2.8518,-1.000598 4.3013,-1.449599 1.4495,-0.4489 2.914,-0.862999 4.3934,-1.241898 1.4795,-0.378902 2.9738,-0.722501 4.4814,-1.029401 1.5076,-0.307002 3.0288,-0.5773 4.56259,-0.8103 1.53377,-0.233101 3.07984,-0.429101 4.63787,-0.586401 1.55802,-0.157301 3.12789,-0.276199 4.70828,-0.355799 1.58042,-0.08 3.17127,-0.119801 4.77211,-0.119801 1.600859,0 3.192307,0.04 4.772697,0.119801 1.580412,0.08 3.15027,0.198498 4.7083,0.355799 1.558031,0.1573 3.1041,0.3533 4.637871,0.586401 1.533739,0.233 3.05503,0.503298 4.5626,0.8103 1.507561,0.3069 3.00124,0.650499 4.480721,1.029401 1.479489,0.378899 2.94455,0.792998 4.39406,1.241898 1.449459,0.449001 2.883749,0.932601 4.301339,1.449599 1.417561,0.517203 2.818831,1.068002 4.202591,1.651403 1.383779,0.583297 2.74981,1.199298 4.097848,1.8469 1.34806,0.6477 2.677883,1.3271 3.988311,2.037199 1.31042,0.710099 2.601801,1.4508 3.87272,2.221399 1.270851,0.770602 2.52101,1.571001 3.750471,2.4002 1.22946,0.829302 2.437979,1.6877 3.62408,2.573602 1.186119,0.885899 2.350198,1.799598 3.491039,2.740298 1.140841,0.9408 2.25828,1.9081 3.35197,2.9017 1.093681,0.9936 2.163482,2.0136 3.208091,3.0582 1.044609,1.0446 2.06398,2.1144 3.057581,3.2081 0.99364,1.0937 1.961567,2.2111 2.90227,3.3519 0.94075,1.1409 1.85443,2.305 2.740369,3.4911 0.885931,1.1861 1.74372,2.394 2.57294,3.6235 0.829272,1.2294 1.630192,2.4802 2.400832,3.7511 0.77063,1.2708 1.51128,2.5623 2.22139,3.8727 0.71012,1.3104 1.38952,2.6396 2.03719,3.9876 0.64767,1.3481 1.2636,2.7148 1.84695,4.0985 0.58335,1.3838 1.13419,2.785 1.65132,4.2026 0.5171,1.4176 1.00007,2.8513 1.44902,4.3008 0.44894,1.4495 0.86362,2.9145 1.24253,4.394 0.37891,1.4795 0.72253,2.9738 1.02944,4.4813 0.30695,1.507598 0.57722,3.028898 0.8103196,4.562698 0.23304,1.5337 0.42846,3.0798 0.58573,4.6378 0.15727,1.558 0.2762,3.1279 0.35579,4.7083 0.0796,1.5804 0.11977,3.1712 0.11977,4.7721 V 242.00181 A 184.93633,184.93633 0 0 0 21.993181,219.77692 v -115.038 c 0,-2.1345 -0.0533,-4.256 -0.15949,-6.363198 -0.10618,-2.1072 -0.26469,-4.2004 -0.4744,-6.2777 -0.20971,-2.0775 -0.47067,-4.1389 -0.78142,-6.1838 -0.31073,-2.0451 -0.67133,-4.0733 -1.08059,-6.0833 -0.40928,-2.0101 -0.86738,-4.0023 -1.37255,-5.9749 -0.50522,-1.9727 -1.05754,-3.9261 -1.65616,-5.8588 -0.59859,-1.9326 -1.24296,-3.8446 -1.93241,-5.7347 -0.68948,-1.8901 -1.42378,-3.7584 -2.20154,-5.6035 -0.7778,-1.845 -1.59925,-3.667 -2.4628004,-5.4644 -0.8636,-1.7974 -1.76948,-3.5703 -2.71624,-5.317499 -0.94684,-1.7472 -1.93439,-3.468902 -2.9619,-5.163402 -1.02751,-1.694497 -2.09524,-3.3616 -3.20088001,-5.0009 -1.10564,-1.639199 -2.24956999,-3.2502 -3.43081999,-4.831699 -1.18124,-1.581399 -2.39988,-3.133601 -3.65419,-4.654701 -1.25429,-1.5211 -2.54426,-3.011699 -3.86908,-4.4699 -1.3248496,-1.458198 -2.6840196,-2.883799 -4.0767796,-4.276698 -1.39285,-1.392801 -2.81903,-2.7525 -4.27728,-4.077401 -1.45823,-1.324801 -2.94878,-2.614801 -4.46988,-3.8690996 -1.521142,-1.2543 -3.073241,-2.472899 -4.654743,-3.6542 -1.581438,-1.181201 -3.192428,-2.325201 -4.831699,-3.4309 -1.639239,-1.105599 -3.30631,-2.17270005 -5.00086,-3.20019905 -1.694501,-1.02750095 -3.416181,-2.01570195 -5.163389,-2.96249995 -1.74725,-0.946801 -3.520141,-1.8527 -5.317532,-2.7163 -1.7974,-0.8636 -3.619368,-1.684401 -5.464408,-2.462202 -1.845022,-0.777798 -3.713372,-1.5120994 -5.603492,-2.2016004 -1.890098,-0.689399 -3.80203,-1.3344 -5.734679,-1.932998 -1.932681,-0.598702 -3.8861,-1.150901 -5.85877,-1.656102 -1.972611,-0.505298 -3.96418,-0.963398 -5.974291,-1.3726 -2.01008,-0.4093 -4.03828,-0.7699 -6.083269,-1.080598 -2.045001,-0.310801 -4.107031,-0.571701 -6.18441,-0.781502 -2.077371,-0.209598 -4.1705,-0.3682 -6.277711,-0.4743 -2.107189,-0.106199 -4.22875,-0.1596 -6.363218,-0.1596 z m 0,85.460501 c -1.06723,0 -2.12739,0.027 -3.181,0.08 -1.05359,0.053 -2.10017,0.1323 -3.13886,0.2372 -1.0387,0.1049 -2.06999,0.2354 -3.09251,0.3907 -1.02252,0.1554 -2.03628,0.3354 -3.04135,0.54 -2.01009,0.4092 -3.98389,0.9161 -5.91649,1.5146 -1.9326,0.5987 -3.8241,1.2896 -5.6691,2.0673 -1.845,0.7778 -3.6437,1.6425 -5.391,2.5893 -1.7472,0.9468 -3.4435,1.9754 -5.0827,3.081 -1.6393,1.1057 -3.2215,2.2885 -4.7426,3.5428 -1.5212,1.2544 -2.9808,2.5805 -4.3736,3.9733 -1.3928,1.3928 -2.7189,2.8518 -3.9732,4.373 -1.2544,1.5211 -2.4372,3.1039 -3.5429,4.7432 -1.1056,1.6392 -2.1342,3.3355 -3.081,5.0827 -0.9468,1.747198 -1.8115,3.545398 -2.5892,5.390398 -0.7778,1.845 -1.4687,3.7364 -2.0673,5.669 -0.5986,1.9327 -1.1049,3.9071 -1.5141,5.9172 -0.2046,1.005 -0.3852,2.0188 -0.5406,3.0413 -0.1554,1.0225 -0.2858,2.0539 -0.3907,3.0926 -0.1048,1.0386 -0.1841,2.0846 -0.2372,3.1382 -0.053,1.0536 -0.08,2.1144 -0.08,3.1816 v 127.84571 a 184.93633,184.93633 0 0 0 30.8227,7.90188 V 145.19132 c 0,-1.0672 0.054,-2.1212 0.159,-3.1599 0.1048,-1.0387 0.2607,-2.0622 0.4653,-3.0672 0.2047,-1.0051 0.4581,-1.992 0.7574,-2.9583 0.2993,-0.9663 0.6447,-1.9117 1.0336,-2.8342 0.3889,-0.9226 0.8209,-1.8222 1.2943,-2.6958 0.4734,-0.8736 0.9877,-1.7215 1.5405,-2.5411 0.5529,-0.8196 1.1446,-1.6107 1.7718,-2.3713 0.6271,-0.7606 1.2902,-1.4907 1.9866,-2.1871 0.6964,-0.6964 1.4259,-1.3595 2.1865,-1.9866 0.7605,-0.6272 1.5516,-1.2183 2.3713,-1.7711 0.8196,-0.5529 1.6674,-1.0672 2.541,-1.5406 0.87366,-0.4734 1.77332,-0.906 2.69582,-1.2949 0.92252,-0.3889 1.86792,-0.7337 2.83427,-1.033 0.96631,-0.2993 1.95379,-0.5527 2.95885,-0.7574 1.00504,-0.2046 2.02793,-0.3605 3.06662,-0.4653 1.03868,-0.1049 2.09269,-0.1589 3.15992,-0.1589 1.06723,0 2.121858,0.054 3.160527,0.1589 1.038702,0.1048 2.06157,0.2607 3.066651,0.4653 1.00503,0.2047 1.99191,0.4581 2.95824,0.7574 0.966319,0.2993 1.912329,0.6441 2.834849,1.033 0.92252,0.3889 1.821571,0.8215 2.695181,1.2949 0.873609,0.4734 1.72144,0.9877 2.541071,1.5406 0.819619,0.5528 1.611329,1.1439 2.37191,1.7711 0.760551,0.6271 1.49007,1.2902 2.18648,1.9866 0.69641,0.6964 1.359458,1.4265 1.986608,2.1871 0.627182,0.7606 1.218301,1.5517 1.771102,2.3713 0.552839,0.8196 1.06715,1.6675 1.54055,2.5411 0.473419,0.8736 0.90601,1.7732 1.294929,2.6958 0.388872,0.9225 0.734319,1.8679 1.033629,2.8342 0.299292,0.9663 0.552681,1.9532 0.757323,2.9583 0.204639,1.005 0.360508,2.0285 0.465359,3.0672 0.10486,1.0387 0.158319,2.0927 0.158319,3.1599 v 119.01552 a 184.93633,184.93633 0 0 0 30.82271,-7.97002 v -127.6831 c 0,-1.0673 -0.0263,-2.128 -0.0794,-3.1816 -0.053,-1.0536 -0.132321,-2.0996 -0.237181,-3.1383 -0.104849,-1.0387 -0.23532,-2.07 -0.39071,-3.0925 -0.155369,-1.0225 -0.335971,-2.0363 -0.540599,-3.0414 -0.409231,-2.0101 -0.915429,-3.9845 -1.514031,-5.9171 -0.59862,-1.9326 -1.28951,-3.8241 -2.06729,-5.6691 -0.777809,-1.845 -1.642449,-3.6431 -2.589228,-5.390298 -0.946822,-1.7473 -1.976041,-3.4435 -3.081692,-5.0828 -1.105638,-1.6392 -2.287879,-3.2221 -3.5422,-4.7432 -1.254299,-1.5211 -2.58042,-2.9802 -3.97324,-4.373 -1.39278,-1.3928 -2.852459,-2.7189 -4.373559,-3.9732 -1.52114,-1.2543 -3.103981,-2.4372 -4.74322,-3.5428 -1.639271,-1.1057 -3.334891,-2.1343 -5.08213,-3.0811 -1.747221,-0.9468 -3.545941,-1.8114 -5.390981,-2.5892 -1.845029,-0.7778 -3.73643,-1.4687 -5.669079,-2.0673 -1.932651,-0.5986 -3.906411,-1.1054 -5.91652,-1.5147 -1.005062,-0.2046 -2.018842,-0.3846 -3.04134,-0.54 -1.022522,-0.1553 -2.05382,-0.2858 -3.092511,-0.3906 -1.03868,-0.1049 -2.08529,-0.1842 -3.138861,-0.2373 -1.053578,-0.053 -2.114366,-0.08 -3.181596,-0.08 z"
       id="path5395-3"
       inkscape:connector-curvature="0"
       inkscape:export-filename="C:\Users\ericc\Documents\GitHub\attackathon\AttackathonLogoWhite.png"
       inkscape:export-xdpi="206.02"
       inkscape:export-ydpi="206.02" />
  </g>
</svg>
