<?xml version="1.0" encoding="UTF-8" standalone="no"?>
<!-- Created with Inkscape (http://www.inkscape.org/) -->

<svg
   xmlns:dc="http://purl.org/dc/elements/1.1/"
   xmlns:cc="http://creativecommons.org/ns#"
   xmlns:rdf="http://www.w3.org/1999/02/22-rdf-syntax-ns#"
   xmlns:svg="http://www.w3.org/2000/svg"
   xmlns="http://www.w3.org/2000/svg"
   xmlns:sodipodi="http://sodipodi.sourceforge.net/DTD/sodipodi-0.dtd"
   xmlns:inkscape="http://www.inkscape.org/namespaces/inkscape"
   width="3166.3762mm"
   height="546.79852mm"
   viewBox="0 0 3166.3762 546.79852"
   version="1.1"
   id="svg6969"
   inkscape:version="0.92.3 (2405546, 2018-03-11)"
   sodipodi:docname="TextFullLogoColor.svg">
  <defs
     id="defs6963" />
  <sodipodi:namedview
     id="base"
     pagecolor="#ffffff"
     bordercolor="#666666"
     borderopacity="1.0"
     inkscape:pageopacity="0.0"
     inkscape:pageshadow="2"
     inkscape:zoom="0.061871843"
     inkscape:cx="7341.5107"
     inkscape:cy="-1214.5041"
     inkscape:document-units="mm"
     inkscape:current-layer="layer1"
     showgrid="false"
     fit-margin-top="0"
     fit-margin-left="0"
     fit-margin-right="0"
     fit-margin-bottom="0"
     inkscape:window-width="1842"
     inkscape:window-height="1051"
     inkscape:window-x="69"
     inkscape:window-y="-9"
     inkscape:window-maximized="1" />
  <metadata
     id="metadata6966">
    <rdf:RDF>
      <cc:Work
         rdf:about="">
        <dc:format>image/svg+xml</dc:format>
        <dc:type
           rdf:resource="http://purl.org/dc/dcmitype/StillImage" />
        <dc:title></dc:title>
      </cc:Work>
    </rdf:RDF>
  </metadata>
  <g
     inkscape:label="Layer 1"
     inkscape:groupmode="layer"
     id="layer1"
     transform="translate(2056.2122,719.30274)">
    <g
       aria-label="Attackathon"
       style="font-style:normal;font-variant:normal;font-weight:normal;font-stretch:normal;font-size:456.88586426px;line-height:1.25;font-family:usual;-inkscape-font-specification:usual;letter-spacing:0px;word-spacing:0px;fill:#133ef1;fill-opacity:1;stroke:none;stroke-width:1.14221454"
       id="text4520-6"
       transform="translate(-935.83778,-470.86513)"
       inkscape:export-filename="C:\Users\ericc\Documents\GitHub\attackathon\TextFullWhite.png"
       inkscape:export-xdpi="75.33783"
       inkscape:export-ydpi="75.33783">
      <path
         d="m -313.34301,188.66826 24.66145,-75.76907 h 119.90009 l 24.66146,75.76907 h 75.282325 L -183.38364,-143.61237 h -90.5335 l -114.7082,332.28063 z m 42.50856,-130.608354 40.88609,-125.74096 h 2.59594 l 40.88609,125.74096 z"
         style="font-style:normal;font-variant:normal;font-weight:bold;font-stretch:normal;line-height:0;font-family:'Inter UI';-inkscape-font-specification:'Inter UI Bold';text-align:start;letter-spacing:-30.95274353px;text-anchor:start;fill:#133ef1;fill-opacity:1;stroke-width:1.14221454"
         id="path6285-2"
         inkscape:connector-curvature="0" />
      <path
         d="M 56.290579,-60.542213 H 9.401369 v -59.706677 h -69.116967 v 59.706677 h -34.071744 v 51.9188485 h 34.071744 V 120.68702 c -0.324492,48.67392 32.93602,72.84863 83.070157,70.90167 17.847105,-0.81123 30.502324,-4.38065 37.478919,-6.48985 L 49.962969,133.50448 c -3.407174,0.81123 -10.708262,2.27145 -17.198118,2.27145 -13.790944,0 -23.363482,-5.19188 -23.363482,-24.33696 V -8.6233645 h 46.88921 z"
         style="font-style:normal;font-variant:normal;font-weight:bold;font-stretch:normal;line-height:0;font-family:'Inter UI';-inkscape-font-specification:'Inter UI Bold';text-align:start;letter-spacing:-30.95274353px;text-anchor:start;fill:#133ef1;fill-opacity:1;stroke-width:1.14221454"
         id="path6287-0"
         inkscape:connector-curvature="0" />
      <path
         d="M 203.80889,-60.542213 H 156.91968 V -120.24889 H 87.802713 v 59.706677 H 53.730969 V -8.6233645 H 87.802713 V 120.68702 c -0.324493,48.67392 32.936017,72.84863 83.070157,70.90167 17.8471,-0.81123 30.50232,-4.38065 37.47892,-6.48985 l -10.87051,-51.59436 c -3.40717,0.81123 -10.70826,2.27145 -17.19812,2.27145 -13.79094,0 -23.36348,-5.19188 -23.36348,-24.33696 V -8.6233645 h 46.88921 z"
         style="font-style:normal;font-variant:normal;font-weight:bold;font-stretch:normal;line-height:0;font-family:'Inter UI';-inkscape-font-specification:'Inter UI Bold';text-align:start;letter-spacing:-30.95274353px;text-anchor:start;fill:#133ef1;fill-opacity:1;stroke-width:1.14221454"
         id="path6289-2"
         inkscape:connector-curvature="0" />
      <path
         d="m 289.83581,193.3734 c 36.82994,0 60.68016,-16.06239 72.84864,-39.26362 h 1.94695 v 34.55848 h 65.54755 V 20.580988 c 0,-59.382183 -50.29638,-84.368129 -105.78465,-84.368129 -59.70668,0 -98.97031,28.555367 -108.54284,73.984359 l 63.92508,5.191885 c 4.70514,-16.5491331 19.46957,-28.717613 44.29326,-28.717613 23.52573,0 36.99218,11.8439871 36.99218,32.287034 v 0.973478 c 0,16.062394 -17.03587,18.171597 -60.35566,22.390003 -49.3229,4.542899 -93.61617,21.092032 -93.61617,76.742545 0,49.32291 35.20747,74.30885 82.74566,74.30885 z m 19.79406,-47.70044 c -21.25427,0 -36.50544,-9.89703 -36.50544,-28.87986 0,-19.469565 16.0624,-29.042103 40.39936,-32.449277 15.08891,-2.109203 39.75037,-5.678624 48.02493,-11.195002 v 26.446164 c 0,26.121675 -21.57877,46.077975 -51.91885,46.077975 z"
         style="font-style:normal;font-variant:normal;font-weight:bold;font-stretch:normal;line-height:0;font-family:'Inter UI';-inkscape-font-specification:'Inter UI Bold';text-align:start;letter-spacing:-30.95274353px;text-anchor:start;fill:#133ef1;fill-opacity:1;stroke-width:1.14221454"
         id="path6291-1"
         inkscape:connector-curvature="0" />
      <path
         d="m 565.44761,193.53565 c 66.35878,0 108.05611,-38.93914 111.30103,-96.212115 h -65.22305 c -4.05616,26.608405 -21.57877,41.535075 -45.26674,41.535075 -32.28704,0 -53.21682,-27.09515 -53.21682,-74.795587 0,-47.051456 21.09203,-73.9843587 53.21682,-73.9843587 25.31043,0 41.53507,16.7113792 45.26674,41.5350787 h 65.22305 c -2.92043,-57.597472 -46.56471,-95.400884 -111.62552,-95.400884 -75.60682,0 -122.33379,52.405588 -122.33379,128.823642 0,75.769069 45.91574,128.499149 122.65828,128.499149 z"
         style="font-style:normal;font-variant:normal;font-weight:bold;font-stretch:normal;line-height:0;font-family:'Inter UI';-inkscape-font-specification:'Inter UI Bold';text-align:start;letter-spacing:-30.95274353px;text-anchor:start;fill:#133ef1;fill-opacity:1;stroke-width:1.14221454"
         id="path6293-0"
         inkscape:connector-curvature="0" />
      <path
         d="m 690.49485,188.66826 h 69.11697 V 109.49202 L 778.27015,88.237737 846.2514,188.66826 h 80.96095 L 830.02676,47.351644 922.5072,-60.542213 h -79.33848 l -79.82523,94.589652 h -3.73167 V -143.61237 h -69.11697 z"
         style="font-style:normal;font-variant:normal;font-weight:bold;font-stretch:normal;line-height:0;font-family:'Inter UI';-inkscape-font-specification:'Inter UI Bold';text-align:start;letter-spacing:-30.95274353px;text-anchor:start;fill:#133ef1;fill-opacity:1;stroke-width:1.14221454"
         id="path6295-1"
         inkscape:connector-curvature="0" />
      <path
         d="m 996.52789,193.3734 c 36.82991,0 60.68011,-16.06239 72.84861,-39.26362 h 1.947 v 34.55848 h 65.5475 V 20.580988 c 0,-59.382183 -50.2964,-84.368129 -105.7846,-84.368129 -59.7067,0 -98.97033,28.555367 -108.54287,73.984359 l 63.92508,5.191885 c 4.70515,-16.5491331 19.46959,-28.717613 44.29329,-28.717613 23.5257,0 36.9922,11.8439871 36.9922,32.287034 v 0.973478 c 0,16.062394 -17.0359,18.171597 -60.3557,22.390003 -49.32291,4.542899 -93.61617,21.092032 -93.61617,76.742545 0,49.32291 35.20747,74.30885 82.74566,74.30885 z m 19.79411,-47.70044 c -21.25433,0 -36.50549,-9.89703 -36.50549,-28.87986 0,-19.469565 16.0624,-29.042103 40.39939,-32.449277 15.0889,-2.109203 39.7503,-5.678624 48.0249,-11.195002 v 26.446164 c 0,26.121675 -21.5788,46.077975 -51.9188,46.077975 z"
         style="font-style:normal;font-variant:normal;font-weight:bold;font-stretch:normal;line-height:0;font-family:'Inter UI';-inkscape-font-specification:'Inter UI Bold';text-align:start;letter-spacing:-30.95274353px;text-anchor:start;fill:#133ef1;fill-opacity:1;stroke-width:1.14221454"
         id="path6297-8"
         inkscape:connector-curvature="0" />
      <path
         d="m 1292.0959,-60.542213 h -46.8892 v -59.706677 h -69.1169 v 59.706677 h -34.0718 v 51.9188485 h 34.0718 V 120.68702 c -0.3245,48.67392 32.936,72.84863 83.0701,70.90167 17.8471,-0.81123 30.5023,-4.38065 37.4789,-6.48985 l -10.8705,-51.59436 c -3.4071,0.81123 -10.7082,2.27145 -17.1981,2.27145 -13.7909,0 -23.3635,-5.19188 -23.3635,-24.33696 V -8.6233645 h 46.8892 z"
         style="font-style:normal;font-variant:normal;font-weight:bold;font-stretch:normal;line-height:0;font-family:'Inter UI';-inkscape-font-specification:'Inter UI Bold';text-align:start;letter-spacing:-30.95274353px;text-anchor:start;fill:#133ef1;fill-opacity:1;stroke-width:1.14221454"
         id="path6299-7"
         inkscape:connector-curvature="0" />
      <path
         d="m 1381.53,44.593455 c 0.1623,-32.124787 19.7941,-50.9453699 48.025,-50.9453699 28.0686,0 44.6177,18.0093509 44.4555,48.6739199 V 188.66826 h 69.1169 V 29.991279 c 0.1623,-58.408704 -34.2339,-93.77842 -86.1528,-93.77842 -37.8034,0 -63.1138,17.847104 -74.4711,47.213703 h -2.9204 V -143.61237 h -67.17 v 332.28063 h 69.1169 z"
         style="font-style:normal;font-variant:normal;font-weight:bold;font-stretch:normal;line-height:0;font-family:'Inter UI';-inkscape-font-specification:'Inter UI Bold';text-align:start;letter-spacing:-30.95274353px;text-anchor:start;fill:#133ef1;fill-opacity:1;stroke-width:1.14221454"
         id="path6301-3"
         inkscape:connector-curvature="0" />
      <path
         d="m 1679.613,193.53565 c 75.6068,0 122.6583,-51.7566 122.6583,-128.499149 0,-77.229286 -47.0515,-128.823642 -122.6583,-128.823642 -75.6068,0 -122.6583,51.594356 -122.6583,128.823642 0,76.742549 47.0515,128.499149 122.6583,128.499149 z m 0.3245,-53.54131 c -34.883,0 -52.7301,-31.96254 -52.7301,-75.444578 0,-43.482035 17.8471,-75.606823 52.7301,-75.606823 34.234,0 52.0811,32.124788 52.0811,75.606823 0,43.482038 -17.8471,75.444578 -52.0811,75.444578 z"
         style="font-style:normal;font-variant:normal;font-weight:bold;font-stretch:normal;line-height:0;font-family:'Inter UI';-inkscape-font-specification:'Inter UI Bold';text-align:start;letter-spacing:-30.95274353px;text-anchor:start;fill:#133ef1;fill-opacity:1;stroke-width:1.14221454"
         id="path6303-4"
         inkscape:connector-curvature="0" />
      <path
         d="m 1885.3778,44.593455 c 0.1623,-32.124787 19.3073,-50.9453699 47.2137,-50.9453699 27.7441,0 44.4555,18.1715969 44.2933,48.6739199 V 188.66826 h 69.1169 V 29.991279 c 0,-58.084212 -34.0717,-93.77842 -85.9905,-93.77842 -36.9922,0 -63.7629,18.171597 -74.9579,47.213703 h -2.9204 v -43.968775 h -65.8721 V 188.66826 h 69.117 z"
         style="font-style:normal;font-variant:normal;font-weight:bold;font-stretch:normal;line-height:0;font-family:'Inter UI';-inkscape-font-specification:'Inter UI Bold';text-align:start;letter-spacing:-30.95274353px;text-anchor:start;fill:#133ef1;fill-opacity:1;stroke-width:1.14221454"
         id="path6305-7"
         inkscape:connector-curvature="0" />
    </g>
    <path
       style="opacity:1;fill:#133ef1;fill-opacity:1;stroke:none;stroke-width:89.94634247;stroke-linecap:butt;stroke-linejoin:bevel;stroke-miterlimit:4;stroke-dasharray:none;stroke-opacity:1;paint-order:markers fill stroke"
       d="m -1780.6778,-719.30274 a 275.53441,275.53441 0 0 0 -275.5344,275.53441 275.53441,275.53441 0 0 0 45.9223,152.00675 v -142.66264 c 0,-3.97513 0.1002,-7.92668 0.2979,-11.85101 0.1976,-3.92435 0.4929,-7.82169 0.8834,-11.6905 0.3906,-3.86875 0.877,-7.70884 1.4557,-11.51735 0.5787,-3.80858 1.2497,-7.58551 2.0118,-11.32908 0.7621,-3.74344 1.6154,-7.45341 2.5563,-11.12715 0.9408,-3.6738 1.9696,-7.31178 3.0845,-10.91107 1.1148,-3.59932 2.3153,-7.16048 3.5993,-10.68055 1.2841,-3.52004 2.6513,-6.99867 4.0999,-10.43483 1.4485,-3.43607 2.9785,-6.829 4.5868,-10.17643 1.6083,-3.34744 3.2954,-6.64983 5.0586,-9.90381 1.7634,-3.25396 3.6026,-6.46008 5.5161,-9.61591 1.9136,-3.15581 3.901,-6.26076 5.9601,-9.31362 2.059,-3.05292 4.1897,-6.05359 6.3897,-8.99881 2.1999,-2.94531 4.4698,-5.83501 6.8057,-8.66786 2.3361,-2.83287 4.7387,-5.60859 7.206,-8.32436 2.4673,-2.71576 4.9985,-5.37164 7.5923,-7.96557 2.594,-2.59388 5.2508,-5.12603 7.9666,-7.5933 2.7157,-2.46732 5.4906,-4.86994 8.3234,-7.20586 2.8329,-2.33599 5.7235,-4.60507 8.6687,-6.80497 2.9453,-2.19992 5.9451,-4.33059 8.998,-6.38971 3.0528,-2.05906 6.1587,-4.04644 9.3146,-5.96003 3.1557,-1.91354 6.3618,-3.75368 9.6158,-5.51694 3.2539,-1.76333 6.5555,-3.45036 9.9029,-5.05867 3.3475,-1.60826 6.7404,-3.13741 10.1765,-4.58595 3.4361,-1.44851 6.9156,-2.81578 10.4357,-4.09981 3.5201,-1.28402 7.0813,-2.48545 10.6806,-3.60026 3.5993,-1.11482 7.2372,-2.14366 10.911,-3.08453 3.6738,-0.94085 7.3828,-1.79317 11.1263,-2.55532 3.7435,-0.76214 7.5214,-1.43395 11.3299,-2.01266 3.8086,-0.57877 7.6486,-1.06426 11.5174,-1.45483 3.8688,-0.39056 7.7661,-0.68586 11.6905,-0.88346 3.9244,-0.19758 7.875,-0.29779 11.8501,-0.29779 3.9752,0 7.9267,0.10011 11.851,0.29779 3.9244,0.19758 7.8217,0.4929 11.6905,0.88346 3.8688,0.39057 7.7089,0.87606 11.5174,1.45483 3.8085,0.57871 7.5855,1.25052 11.329,2.01266 3.7436,0.76215 7.4535,1.61447 11.1272,2.55532 3.6738,0.94087 7.3118,1.96971 10.9111,3.08453 3.5993,1.11481 7.1605,2.31624 10.6806,3.60026 3.52,1.28403 6.9986,2.6513 10.4347,4.09981 3.4361,1.44854 6.8291,2.97769 10.1765,4.58595 3.3474,1.60831 6.6499,3.29534 9.9038,5.05867 3.254,1.76326 6.4601,3.6034 9.6159,5.51694 3.1558,1.91359 6.2607,3.90097 9.3137,5.96003 3.0528,2.05912 6.0535,4.18979 8.9988,6.38971 2.9452,2.1999 5.835,4.46898 8.6678,6.80497 2.8329,2.33592 5.6086,4.73854 8.3243,7.20586 2.7158,2.46727 5.3717,4.99942 7.9656,7.5933 2.5939,2.59393 5.1261,5.24981 7.5934,7.96557 2.4673,2.71577 4.8698,5.49149 7.2058,8.32436 2.336,2.83285 4.6051,5.72255 6.805,8.66786 2.1999,2.94522 4.3305,5.94589 6.3896,8.99881 2.0592,3.05286 4.0474,6.15781 5.961,9.31362 1.9135,3.15583 3.7528,6.36195 5.516,9.61591 1.7633,3.25398 3.4504,6.55637 5.0587,9.90381 1.6083,3.34743 3.1375,6.74036 4.586,10.17643 1.4485,3.43616 2.8166,6.91479 4.1007,10.43483 1.2841,3.52007 2.4845,7.08123 3.5994,10.68055 1.1148,3.59929 2.1436,7.23727 3.0844,10.91107 0.9409,3.67374 1.7932,7.38371 2.5554,11.12715 0.7622,3.74357 1.434,7.5205 2.0127,11.32908 0.5787,3.80851 1.0642,7.6486 1.4548,11.51735 0.3905,3.86881 0.6858,7.76615 0.8835,11.6905 0.1976,3.92433 0.2977,7.87588 0.2977,11.85101 v 142.6411 a 275.53441,275.53441 0 0 0 45.9224,-151.98521 275.53441,275.53441 0 0 0 -275.5344,-275.53441 z m 0,125.37889 c -3.1801,0 -6.34,0.0795 -9.4796,0.23769 -3.1394,0.1582 -6.258,0.39435 -9.353,0.70675 -3.0951,0.31248 -6.1673,0.70124 -9.2141,1.16424 -3.0468,0.46298 -6.0686,1.00023 -9.0634,1.61 -2.9949,0.60971 -5.963,1.29225 -8.902,2.04498 -2.939,0.75266 -5.8485,1.57551 -8.7279,2.46739 -2.8795,0.89187 -5.728,1.85279 -8.5441,2.88003 -2.816,1.02723 -5.5997,2.12124 -8.3485,3.28005 -2.7489,1.15881 -5.4635,2.38175 -8.1414,3.66842 -2.6779,1.2866 -5.3193,2.63626 -7.9225,4.0469 -2.6032,1.41066 -5.1683,2.88287 -7.693,4.41375 -2.5246,1.53087 -5.0093,3.12075 -7.4516,4.76804 -2.4422,1.64726 -4.8425,3.35165 -7.1987,5.11157 -2.3561,1.75994 -4.6678,3.5755 -6.9341,5.44429 -2.2663,1.86881 -4.487,3.79071 -6.6596,5.76453 -2.1726,1.97384 -4.2975,3.9997 -6.3726,6.07484 -2.0751,2.07512 -4.1001,4.19915 -6.074,6.37173 -1.9739,2.1726 -3.8966,4.39338 -5.7654,6.65963 -1.8688,2.26632 -3.6834,4.57884 -5.4434,6.93503 -1.7599,2.35619 -3.4652,4.75636 -5.1124,7.19868 -1.6474,2.44229 -3.2372,4.92612 -4.7681,7.45074 -1.5308,2.52463 -3.0023,5.08973 -4.4129,7.69292 -1.4106,2.60317 -2.7603,5.24455 -4.0468,7.92248 -1.2868,2.67794 -2.5106,5.39249 -3.6694,8.14135 -1.1588,2.74894 -2.2528,5.53252 -3.2801,8.34856 -1.0272,2.81604 -1.9872,5.66467 -2.8791,8.54411 -0.8918,2.87941 -1.7156,5.7898 -2.4683,8.72883 -0.7526,2.93905 -1.4344,5.90714 -2.0441,8.90196 -0.6097,2.99479 -1.147,6.01655 -1.61,9.06341 -0.4629,3.04681 -0.8517,6.11807 -1.1642,9.21316 -0.3124,3.09502 -0.5486,6.21361 -0.7068,9.3531 -0.1581,3.1395 -0.2385,6.30034 -0.2385,9.48045 v 171.44304 a 275.53438,275.53438 0 0 0 45.9225,33.29464 V -389.9261 c 0,-2.38511 0.061,-4.7553 0.1792,-7.10993 0.1186,-2.35458 0.2958,-4.6935 0.5301,-7.01482 0.2343,-2.32132 0.5254,-4.62479 0.8726,-6.90989 0.3473,-2.28512 0.7501,-4.55165 1.2074,-6.7978 0.4573,-2.24608 0.9692,-4.47236 1.5337,-6.67663 0.5645,-2.2043 1.1814,-4.38706 1.8504,-6.54667 0.6689,-2.15953 1.3893,-4.29556 2.1597,-6.4076 0.7705,-2.11203 1.5912,-4.19976 2.4603,-6.26142 0.8691,-2.06166 1.7867,-4.09781 2.7518,-6.10626 0.9649,-2.00837 1.9772,-3.98886 3.0351,-5.94116 1.058,-1.95239 2.1615,-3.87645 3.3096,-5.76991 1.1482,-1.89347 2.3406,-3.757 3.5761,-5.58873 1.2354,-1.83174 2.5145,-3.63144 3.8344,-5.39858 1.3198,-1.76715 2.6812,-3.50153 4.0827,-5.20126 1.4016,-1.69973 2.8437,-3.36459 4.3241,-4.99406 1.4804,-1.62942 2.9991,-3.22335 4.5555,-4.77971 1.5563,-1.55631 3.1501,-3.07598 4.7796,-4.55633 1.6295,-1.4804 3.2944,-2.92159 4.9941,-4.32317 1.6997,-1.40161 3.4341,-2.76284 5.2013,-4.08278 1.7671,-1.31996 3.5668,-2.59887 5.3986,-3.83434 1.8316,-1.23548 3.6952,-2.42792 5.5887,-3.57603 1.8934,-1.14814 3.8175,-2.25166 5.7698,-3.30967 1.9524,-1.05797 3.9337,-2.07018 5.9422,-3.03515 2.0084,-0.96496 4.0436,-1.88267 6.1053,-2.75176 2.0617,-0.86913 4.1494,-1.68985 6.2614,-2.46029 2.1121,-0.7704 4.249,-1.49087 6.4085,-2.15977 2.1596,-0.66888 4.3415,-1.28583 6.5457,-1.85035 2.2043,-0.56452 4.4306,-1.07643 6.6767,-1.53371 2.2462,-0.45733 4.5127,-0.86004 6.7978,-1.20728 2.2852,-0.34725 4.5886,-0.63926 6.9099,-0.87361 2.3213,-0.23436 4.6602,-0.41148 7.0148,-0.53009 2.3547,-0.1186 4.7248,-0.17844 7.1099,-0.17844 2.3851,0 4.7562,0.0598 7.1108,0.17844 2.3546,0.1186 4.6936,0.29573 7.0149,0.53009 2.3213,0.23435 4.6247,0.52636 6.9098,0.87361 2.2851,0.34724 4.5517,0.74995 6.7978,1.20728 2.2461,0.45728 4.4715,0.96919 6.6758,1.53371 2.2043,0.56452 4.387,1.18147 6.5466,1.85035 2.1596,0.6689 4.2965,1.38937 6.4086,2.15977 2.112,0.77044 4.1997,1.59116 6.2613,2.46029 2.0617,0.86909 4.097,1.7868 6.1054,2.75176 2.0085,0.96497 3.9897,1.97718 5.9421,3.03515 1.9524,1.05801 3.8764,2.16153 5.7699,3.30967 1.8935,1.14811 3.7561,2.34055 5.5878,3.57603 1.8318,1.23547 3.6323,2.51438 5.3995,3.83434 1.7672,1.31994 3.5015,2.68117 5.2013,4.08278 1.6997,1.40158 3.3645,2.84277 4.994,4.32317 1.6295,1.48035 3.2234,3.00002 4.7797,4.55633 1.5563,1.55636 3.0751,3.15029 4.5555,4.77971 1.4804,1.62947 2.9225,3.29433 4.324,4.99406 1.4016,1.69973 2.7629,3.43411 4.0828,5.20126 1.32,1.76714 2.598,3.56684 3.8335,5.39858 1.2355,1.83173 2.4287,3.69526 3.5769,5.58873 1.1482,1.89346 2.2516,3.81752 3.3096,5.76991 1.058,1.9523 2.0702,3.93279 3.0352,5.94116 0.965,2.00845 1.8826,4.0446 2.7518,6.10626 0.8691,2.06166 1.6898,4.14939 2.4602,6.26142 0.7705,2.11204 1.49,4.24807 2.1589,6.4076 0.6689,2.15961 1.2867,4.34237 1.8513,6.54667 0.5645,2.20427 1.0764,4.43055 1.5337,6.67663 0.4573,2.24615 0.86,4.51268 1.2073,6.7978 0.3472,2.2851 0.6384,4.58857 0.8727,6.90989 0.2343,2.32132 0.4115,4.66024 0.5301,7.01482 0.1185,2.35463 0.1784,4.72482 0.1784,7.10993 v 184.19816 a 275.53438,275.53438 0 0 0 45.9224,-33.11261 v -171.39369 c 0,-3.18011 -0.08,-6.34095 -0.2376,-9.48045 -0.1582,-3.13949 -0.3944,-6.25808 -0.7068,-9.3531 -0.3125,-3.09509 -0.7013,-6.16635 -1.1643,-9.21316 -0.4629,-3.04686 -1.0002,-6.06862 -1.6099,-9.06341 -0.6098,-2.99482 -1.2923,-5.96291 -2.045,-8.90196 -0.7527,-2.93903 -1.5756,-5.84942 -2.4675,-8.72883 -0.8918,-2.87944 -1.8518,-5.72807 -2.879,-8.54411 -1.0273,-2.81604 -2.1213,-5.59962 -3.2801,-8.34856 -1.1588,-2.74886 -2.3827,-5.46341 -3.6693,-8.14135 -1.2866,-2.67793 -2.6363,-5.31931 -4.0469,-7.92248 -1.4106,-2.60319 -2.882,-5.16829 -4.4129,-7.69292 -1.5308,-2.52462 -3.1216,-5.00845 -4.7689,-7.45074 -1.6473,-2.44232 -3.3516,-4.84249 -5.1116,-7.19868 -1.7599,-2.35619 -3.5755,-4.66871 -5.4443,-6.93503 -1.8687,-2.26625 -3.7906,-4.48703 -5.7645,-6.65963 -1.9739,-2.17258 -3.9989,-4.29661 -6.074,-6.37173 -2.0751,-2.07514 -4.2,-4.101 -6.3726,-6.07484 -2.1726,-1.97382 -4.3933,-3.89572 -6.6596,-5.76453 -2.2664,-1.86879 -4.5788,-3.68435 -6.9351,-5.44429 -2.3561,-1.75992 -4.7563,-3.46431 -7.1986,-5.11157 -2.4423,-1.64729 -4.9261,-3.23717 -7.4508,-4.76804 -2.5246,-1.53088 -5.0897,-3.00309 -7.6928,-4.41375 -2.6032,-1.41064 -5.2446,-2.7603 -7.9226,-4.0469 -2.6779,-1.28667 -5.3924,-2.50961 -8.1413,-3.66842 -2.7489,-1.15881 -5.5325,-2.25282 -8.3486,-3.28005 -2.816,-1.02724 -5.6646,-1.98816 -8.544,-2.88003 -2.8795,-0.89188 -5.7899,-1.71473 -8.7289,-2.46739 -2.939,-0.75273 -5.9062,-1.43527 -8.9011,-2.04498 -2.9947,-0.60977 -6.0165,-1.14702 -9.0633,-1.61 -3.0469,-0.463 -6.1191,-0.85176 -9.2141,-1.16424 -3.0951,-0.3124 -6.2136,-0.54861 -9.3531,-0.70675 -3.1395,-0.1582 -6.3004,-0.23769 -9.4805,-0.23769 z m 0,127.32616 c -1.5901,0 -3.1696,0.0402 -4.7393,0.11925 -1.5697,0.0792 -3.129,0.19715 -4.6766,0.35342 -1.5475,0.15621 -3.084,0.35069 -4.6075,0.58205 -1.5234,0.23151 -3.0338,0.49968 -4.5312,0.80457 -2.9948,0.60971 -5.9355,1.36481 -8.815,2.25666 -2.8794,0.89188 -5.6974,1.92123 -8.4463,3.08003 -2.7489,1.15881 -5.4287,2.44702 -8.0319,3.85767 -2.6032,1.41063 -5.1304,2.94315 -7.5727,4.59045 -2.4423,1.64729 -4.7997,3.4096 -7.0659,5.27835 -2.2664,1.86881 -4.4411,3.84459 -6.5162,5.91966 -2.0751,2.07515 -4.0509,4.249 -5.9197,6.51529 -1.8688,2.26631 -3.6311,4.62454 -5.2784,7.06683 -1.6473,2.44232 -3.1798,4.96954 -4.5904,7.57275 -1.4106,2.60315 -2.6989,5.28214 -3.8577,8.031 -1.1588,2.74889 -2.1882,5.56689 -3.08,8.44632 -0.8919,2.87941 -1.6461,5.82102 -2.2558,8.81587 -0.3048,1.49738 -0.5739,3.00783 -0.8054,4.53125 -0.2315,1.52339 -0.4259,3.05993 -0.5821,4.60751 -0.1562,1.54746 -0.2743,3.10589 -0.3534,4.67561 -0.079,1.56977 -0.1192,3.15018 -0.1192,4.74025 v 190.47571 a 275.53438,275.53438 0 0 0 45.9224,11.77298 v -177.46046 c 0,-1.59007 0.081,-3.16043 0.2368,-4.70797 0.1562,-1.5475 0.3884,-3.0724 0.6933,-4.56981 0.3048,-1.49741 0.6824,-2.96775 1.1283,-4.40748 0.4459,-1.4397 0.9606,-2.84824 1.54,-4.2227 0.5794,-1.37445 1.2231,-2.71483 1.9284,-4.01642 0.7053,-1.30157 1.4716,-2.56477 2.2952,-3.78587 0.8237,-1.22119 1.7053,-2.39985 2.6397,-3.53299 0.9344,-1.13315 1.9222,-2.22096 2.9598,-3.25852 1.0376,-1.03759 2.1245,-2.02547 3.2576,-2.95985 1.1332,-0.93437 2.3118,-1.81514 3.533,-2.63874 1.2212,-0.8237 2.4843,-1.58993 3.7859,-2.29523 1.3016,-0.7053 2.642,-1.34988 4.0164,-1.92926 1.3745,-0.57942 2.783,-1.09318 4.2228,-1.53914 1.4397,-0.4459 2.9109,-0.82346 4.4083,-1.12831 1.4974,-0.30488 3.0214,-0.53711 4.5689,-0.69332 1.5476,-0.15623 3.1179,-0.2368 4.708,-0.2368 1.59,0 3.1613,0.0805 4.7088,0.2368 1.5476,0.15621 3.0715,0.38844 4.569,0.69332 1.4973,0.30485 2.9677,0.68241 4.4074,1.12831 1.4397,0.44596 2.8492,0.95972 4.2236,1.53914 1.3745,0.57938 2.714,1.22396 4.0155,1.92926 1.3016,0.7053 2.5648,1.47153 3.7859,2.29523 1.2212,0.8236 2.4007,1.70437 3.5339,2.63874 1.1332,0.93438 2.2201,1.92226 3.2576,2.95985 1.0376,1.03756 2.0255,2.12537 2.9599,3.25852 0.9344,1.13314 1.8151,2.3118 2.6387,3.53299 0.8237,1.2211 1.5899,2.4843 2.2952,3.78587 0.7054,1.30159 1.3499,2.64197 1.9293,4.01642 0.5794,1.37446 1.0941,2.783 1.54,4.2227 0.4459,1.43973 0.8235,2.91007 1.1284,4.40748 0.3048,1.49741 0.5371,3.02231 0.6933,4.56981 0.1562,1.54754 0.2359,3.1179 0.2359,4.70797 v 177.31965 a 275.53438,275.53438 0 0 0 45.9223,-11.87432 V -374.7529 c 0,-1.59007 -0.039,-3.17048 -0.1183,-4.74025 -0.079,-1.56972 -0.1972,-3.12815 -0.3534,-4.67561 -0.1562,-1.54758 -0.3506,-3.08412 -0.5821,-4.60751 -0.2315,-1.52342 -0.5006,-3.03387 -0.8054,-4.53125 -0.6097,-2.99485 -1.3639,-5.93646 -2.2558,-8.81587 -0.8918,-2.87943 -1.9212,-5.69743 -3.08,-8.44632 -1.1589,-2.74886 -2.4471,-5.42785 -3.8577,-8.031 -1.4106,-2.60321 -2.9441,-5.13043 -4.5913,-7.57275 -1.6473,-2.44229 -3.4087,-4.80052 -5.2775,-7.06683 -1.8688,-2.26629 -3.8446,-4.44014 -5.9197,-6.51529 -2.0751,-2.07507 -4.2499,-4.05085 -6.5161,-5.91966 -2.2663,-1.86875 -4.6246,-3.63106 -7.0669,-5.27835 -2.4423,-1.6473 -4.9686,-3.17982 -7.5718,-4.59045 -2.6032,-1.41065 -5.283,-2.69886 -8.0319,-3.85767 -2.7489,-1.1588 -5.5669,-2.18815 -8.4463,-3.08003 -2.8795,-0.89185 -5.8201,-1.64695 -8.815,-2.25666 -1.4974,-0.30489 -3.0078,-0.57306 -4.5312,-0.80457 -1.5235,-0.23136 -3.06,-0.42584 -4.6075,-0.58205 -1.5475,-0.15623 -3.1069,-0.27435 -4.6766,-0.35342 -1.5697,-0.079 -3.1502,-0.11925 -4.7402,-0.11925 z"
       id="path5395-8"
       inkscape:connector-curvature="0"
       inkscape:export-filename="C:\Users\ericc\Documents\GitHub\attackathon\TextFullWhite.png"
       inkscape:export-xdpi="75.33783"
       inkscape:export-ydpi="75.33783" />
  </g>
</svg>
