<?xml version="1.0" encoding="UTF-8" standalone="no"?>
<!-- Created with Inkscape (http://www.inkscape.org/) -->

<svg
   xmlns:dc="http://purl.org/dc/elements/1.1/"
   xmlns:cc="http://creativecommons.org/ns#"
   xmlns:rdf="http://www.w3.org/1999/02/22-rdf-syntax-ns#"
   xmlns:svg="http://www.w3.org/2000/svg"
   xmlns="http://www.w3.org/2000/svg"
   xmlns:sodipodi="http://sodipodi.sourceforge.net/DTD/sodipodi-0.dtd"
   xmlns:inkscape="http://www.inkscape.org/namespaces/inkscape"
   width="3166.3762mm"
   height="546.79852mm"
   viewBox="0 0 3166.3762 546.79852"
   version="1.1"
   id="svg6969"
   inkscape:version="0.92.3 (2405546, 2018-03-11)"
   sodipodi:docname="TextFullLogo.svg">
  <defs
     id="defs6963" />
  <sodipodi:namedview
     id="base"
     pagecolor="#ffffff"
     bordercolor="#666666"
     borderopacity="1.0"
     inkscape:pageopacity="0.0"
     inkscape:pageshadow="2"
     inkscape:zoom="0.061871843"
     inkscape:cx="5964.1034"
     inkscape:cy="806.87718"
     inkscape:document-units="mm"
     inkscape:current-layer="layer1"
     showgrid="false"
     fit-margin-top="0"
     fit-margin-left="0"
     fit-margin-right="0"
     fit-margin-bottom="0"
     inkscape:window-width="1842"
     inkscape:window-height="1051"
     inkscape:window-x="69"
     inkscape:window-y="-9"
     inkscape:window-maximized="1" />
  <metadata
     id="metadata6966">
    <rdf:RDF>
      <cc:Work
         rdf:about="">
        <dc:format>image/svg+xml</dc:format>
        <dc:type
           rdf:resource="http://purl.org/dc/dcmitype/StillImage" />
        <dc:title></dc:title>
      </cc:Work>
    </rdf:RDF>
  </metadata>
  <g
     inkscape:label="Layer 1"
     inkscape:groupmode="layer"
     id="layer1"
     transform="translate(1691.7732,184.47895)">
    <g
       aria-label="Attackathon"
       style="font-style:normal;font-variant:normal;font-weight:normal;font-stretch:normal;font-size:456.88586426px;line-height:1.25;font-family:usual;-inkscape-font-specification:usual;letter-spacing:0px;word-spacing:0px;fill:#feffff;fill-opacity:1;stroke:none;stroke-width:1.14221454"
       id="text4520"
       transform="translate(-571.39879,63.958656)"
       inkscape:export-filename="C:\Users\ericc\Documents\GitHub\attackathon\TextFullWhite.png"
       inkscape:export-xdpi="75.33783"
       inkscape:export-ydpi="75.33783">
      <path
         d="m -313.34301,188.66826 24.66145,-75.76907 h 119.90009 l 24.66146,75.76907 h 75.282325 L -183.38364,-143.61237 h -90.5335 l -114.7082,332.28063 z m 42.50856,-130.608354 40.88609,-125.74096 h 2.59594 l 40.88609,125.74096 z"
         style="font-style:normal;font-variant:normal;font-weight:bold;font-stretch:normal;line-height:0;font-family:'Inter UI';-inkscape-font-specification:'Inter UI Bold';text-align:start;letter-spacing:-30.95274353px;text-anchor:start;fill:#feffff;fill-opacity:1;stroke-width:1.14221454"
         id="path6285"
         inkscape:connector-curvature="0" />
      <path
         d="M 56.290579,-60.542213 H 9.401369 v -59.706677 h -69.116967 v 59.706677 h -34.071744 v 51.9188485 h 34.071744 V 120.68702 c -0.324492,48.67392 32.93602,72.84863 83.070157,70.90167 17.847105,-0.81123 30.502324,-4.38065 37.478919,-6.48985 L 49.962969,133.50448 c -3.407174,0.81123 -10.708262,2.27145 -17.198118,2.27145 -13.790944,0 -23.363482,-5.19188 -23.363482,-24.33696 V -8.6233645 h 46.88921 z"
         style="font-style:normal;font-variant:normal;font-weight:bold;font-stretch:normal;line-height:0;font-family:'Inter UI';-inkscape-font-specification:'Inter UI Bold';text-align:start;letter-spacing:-30.95274353px;text-anchor:start;fill:#feffff;fill-opacity:1;stroke-width:1.14221454"
         id="path6287"
         inkscape:connector-curvature="0" />
      <path
         d="M 203.80889,-60.542213 H 156.91968 V -120.24889 H 87.802713 v 59.706677 H 53.730969 V -8.6233645 H 87.802713 V 120.68702 c -0.324493,48.67392 32.936017,72.84863 83.070157,70.90167 17.8471,-0.81123 30.50232,-4.38065 37.47892,-6.48985 l -10.87051,-51.59436 c -3.40717,0.81123 -10.70826,2.27145 -17.19812,2.27145 -13.79094,0 -23.36348,-5.19188 -23.36348,-24.33696 V -8.6233645 h 46.88921 z"
         style="font-style:normal;font-variant:normal;font-weight:bold;font-stretch:normal;line-height:0;font-family:'Inter UI';-inkscape-font-specification:'Inter UI Bold';text-align:start;letter-spacing:-30.95274353px;text-anchor:start;fill:#feffff;fill-opacity:1;stroke-width:1.14221454"
         id="path6289"
         inkscape:connector-curvature="0" />
      <path
         d="m 289.83581,193.3734 c 36.82994,0 60.68016,-16.06239 72.84864,-39.26362 h 1.94695 v 34.55848 h 65.54755 V 20.580988 c 0,-59.382183 -50.29638,-84.368129 -105.78465,-84.368129 -59.70668,0 -98.97031,28.555367 -108.54284,73.984359 l 63.92508,5.191885 c 4.70514,-16.5491331 19.46957,-28.717613 44.29326,-28.717613 23.52573,0 36.99218,11.8439871 36.99218,32.287034 v 0.973478 c 0,16.062394 -17.03587,18.171597 -60.35566,22.390003 -49.3229,4.542899 -93.61617,21.092032 -93.61617,76.742545 0,49.32291 35.20747,74.30885 82.74566,74.30885 z m 19.79406,-47.70044 c -21.25427,0 -36.50544,-9.89703 -36.50544,-28.87986 0,-19.469565 16.0624,-29.042103 40.39936,-32.449277 15.08891,-2.109203 39.75037,-5.678624 48.02493,-11.195002 v 26.446164 c 0,26.121675 -21.57877,46.077975 -51.91885,46.077975 z"
         style="font-style:normal;font-variant:normal;font-weight:bold;font-stretch:normal;line-height:0;font-family:'Inter UI';-inkscape-font-specification:'Inter UI Bold';text-align:start;letter-spacing:-30.95274353px;text-anchor:start;fill:#feffff;fill-opacity:1;stroke-width:1.14221454"
         id="path6291"
         inkscape:connector-curvature="0" />
      <path
         d="m 565.44761,193.53565 c 66.35878,0 108.05611,-38.93914 111.30103,-96.212115 h -65.22305 c -4.05616,26.608405 -21.57877,41.535075 -45.26674,41.535075 -32.28704,0 -53.21682,-27.09515 -53.21682,-74.795587 0,-47.051456 21.09203,-73.9843587 53.21682,-73.9843587 25.31043,0 41.53507,16.7113792 45.26674,41.5350787 h 65.22305 c -2.92043,-57.597472 -46.56471,-95.400884 -111.62552,-95.400884 -75.60682,0 -122.33379,52.405588 -122.33379,128.823642 0,75.769069 45.91574,128.499149 122.65828,128.499149 z"
         style="font-style:normal;font-variant:normal;font-weight:bold;font-stretch:normal;line-height:0;font-family:'Inter UI';-inkscape-font-specification:'Inter UI Bold';text-align:start;letter-spacing:-30.95274353px;text-anchor:start;fill:#feffff;fill-opacity:1;stroke-width:1.14221454"
         id="path6293"
         inkscape:connector-curvature="0" />
      <path
         d="m 690.49485,188.66826 h 69.11697 V 109.49202 L 778.27015,88.237737 846.2514,188.66826 h 80.96095 L 830.02676,47.351644 922.5072,-60.542213 h -79.33848 l -79.82523,94.589652 h -3.73167 V -143.61237 h -69.11697 z"
         style="font-style:normal;font-variant:normal;font-weight:bold;font-stretch:normal;line-height:0;font-family:'Inter UI';-inkscape-font-specification:'Inter UI Bold';text-align:start;letter-spacing:-30.95274353px;text-anchor:start;fill:#feffff;fill-opacity:1;stroke-width:1.14221454"
         id="path6295"
         inkscape:connector-curvature="0" />
      <path
         d="m 996.52789,193.3734 c 36.82991,0 60.68011,-16.06239 72.84861,-39.26362 h 1.947 v 34.55848 h 65.5475 V 20.580988 c 0,-59.382183 -50.2964,-84.368129 -105.7846,-84.368129 -59.7067,0 -98.97033,28.555367 -108.54287,73.984359 l 63.92508,5.191885 c 4.70515,-16.5491331 19.46959,-28.717613 44.29329,-28.717613 23.5257,0 36.9922,11.8439871 36.9922,32.287034 v 0.973478 c 0,16.062394 -17.0359,18.171597 -60.3557,22.390003 -49.32291,4.542899 -93.61617,21.092032 -93.61617,76.742545 0,49.32291 35.20747,74.30885 82.74566,74.30885 z m 19.79411,-47.70044 c -21.25433,0 -36.50549,-9.89703 -36.50549,-28.87986 0,-19.469565 16.0624,-29.042103 40.39939,-32.449277 15.0889,-2.109203 39.7503,-5.678624 48.0249,-11.195002 v 26.446164 c 0,26.121675 -21.5788,46.077975 -51.9188,46.077975 z"
         style="font-style:normal;font-variant:normal;font-weight:bold;font-stretch:normal;line-height:0;font-family:'Inter UI';-inkscape-font-specification:'Inter UI Bold';text-align:start;letter-spacing:-30.95274353px;text-anchor:start;fill:#feffff;fill-opacity:1;stroke-width:1.14221454"
         id="path6297"
         inkscape:connector-curvature="0" />
      <path
         d="m 1292.0959,-60.542213 h -46.8892 v -59.706677 h -69.1169 v 59.706677 h -34.0718 v 51.9188485 h 34.0718 V 120.68702 c -0.3245,48.67392 32.936,72.84863 83.0701,70.90167 17.8471,-0.81123 30.5023,-4.38065 37.4789,-6.48985 l -10.8705,-51.59436 c -3.4071,0.81123 -10.7082,2.27145 -17.1981,2.27145 -13.7909,0 -23.3635,-5.19188 -23.3635,-24.33696 V -8.6233645 h 46.8892 z"
         style="font-style:normal;font-variant:normal;font-weight:bold;font-stretch:normal;line-height:0;font-family:'Inter UI';-inkscape-font-specification:'Inter UI Bold';text-align:start;letter-spacing:-30.95274353px;text-anchor:start;fill:#feffff;fill-opacity:1;stroke-width:1.14221454"
         id="path6299"
         inkscape:connector-curvature="0" />
      <path
         d="m 1381.53,44.593455 c 0.1623,-32.124787 19.7941,-50.9453699 48.025,-50.9453699 28.0686,0 44.6177,18.0093509 44.4555,48.6739199 V 188.66826 h 69.1169 V 29.991279 c 0.1623,-58.408704 -34.2339,-93.77842 -86.1528,-93.77842 -37.8034,0 -63.1138,17.847104 -74.4711,47.213703 h -2.9204 V -143.61237 h -67.17 v 332.28063 h 69.1169 z"
         style="font-style:normal;font-variant:normal;font-weight:bold;font-stretch:normal;line-height:0;font-family:'Inter UI';-inkscape-font-specification:'Inter UI Bold';text-align:start;letter-spacing:-30.95274353px;text-anchor:start;fill:#feffff;fill-opacity:1;stroke-width:1.14221454"
         id="path6301"
         inkscape:connector-curvature="0" />
      <path
         d="m 1679.613,193.53565 c 75.6068,0 122.6583,-51.7566 122.6583,-128.499149 0,-77.229286 -47.0515,-128.823642 -122.6583,-128.823642 -75.6068,0 -122.6583,51.594356 -122.6583,128.823642 0,76.742549 47.0515,128.499149 122.6583,128.499149 z m 0.3245,-53.54131 c -34.883,0 -52.7301,-31.96254 -52.7301,-75.444578 0,-43.482035 17.8471,-75.606823 52.7301,-75.606823 34.234,0 52.0811,32.124788 52.0811,75.606823 0,43.482038 -17.8471,75.444578 -52.0811,75.444578 z"
         style="font-style:normal;font-variant:normal;font-weight:bold;font-stretch:normal;line-height:0;font-family:'Inter UI';-inkscape-font-specification:'Inter UI Bold';text-align:start;letter-spacing:-30.95274353px;text-anchor:start;fill:#feffff;fill-opacity:1;stroke-width:1.14221454"
         id="path6303"
         inkscape:connector-curvature="0" />
      <path
         d="m 1885.3778,44.593455 c 0.1623,-32.124787 19.3073,-50.9453699 47.2137,-50.9453699 27.7441,0 44.4555,18.1715969 44.2933,48.6739199 V 188.66826 h 69.1169 V 29.991279 c 0,-58.084212 -34.0717,-93.77842 -85.9905,-93.77842 -36.9922,0 -63.7629,18.171597 -74.9579,47.213703 h -2.9204 v -43.968775 h -65.8721 V 188.66826 h 69.117 z"
         style="font-style:normal;font-variant:normal;font-weight:bold;font-stretch:normal;line-height:0;font-family:'Inter UI';-inkscape-font-specification:'Inter UI Bold';text-align:start;letter-spacing:-30.95274353px;text-anchor:start;fill:#feffff;fill-opacity:1;stroke-width:1.14221454"
         id="path6305"
         inkscape:connector-curvature="0" />
    </g>
    <path
       style="opacity:1;fill:#feffff;fill-opacity:1;stroke:none;stroke-width:89.94634247;stroke-linecap:butt;stroke-linejoin:bevel;stroke-miterlimit:4;stroke-dasharray:none;stroke-opacity:1;paint-order:markers fill stroke"
       d="m -1416.2388,-184.47895 a 275.53441,275.53441 0 0 0 -275.5344,275.534406 275.53441,275.53441 0 0 0 45.9223,152.006754 V 100.39957 c 0,-3.975134 0.1002,-7.926684 0.2979,-11.851014 0.1976,-3.92435 0.4929,-7.82169 0.8834,-11.6905 0.3906,-3.86875 0.877,-7.70883 1.4557,-11.51735 0.5787,-3.80858 1.2497,-7.58551 2.0118,-11.32907 0.7621,-3.74345 1.6154,-7.45342 2.5563,-11.12716 0.9408,-3.6738 1.9696,-7.31178 3.0845,-10.91107 1.1148,-3.59932 2.3153,-7.16047 3.5993,-10.68055 1.2841,-3.52004 2.6513,-6.998665 4.0999,-10.43483 1.4485,-3.4360717 2.9785,-6.8289987 4.5868,-10.17642468 1.6083,-3.34744202 3.2954,-6.64983402 5.0586,-9.90381702 1.7634,-3.2539603 3.6026,-6.4600803 5.5161,-9.6159093 1.9136,-3.155807 3.901,-6.260758 5.9601,-9.313619 2.059,-3.052923 4.1897,-6.053587 6.3897,-8.998809 2.1999,-2.945305 4.4698,-5.835013 6.8057,-8.667864 2.3361,-2.83287 4.7387,-5.608585 7.206,-8.324355 2.4673,-2.715761 4.9985,-5.37164 7.5923,-7.96557 2.594,-2.59388 5.2508,-5.12603 7.9666,-7.593301 2.7157,-2.467319 5.4906,-4.869939 8.3234,-7.205861 2.8329,-2.335987 5.7235,-4.605067 8.6687,-6.804969 2.9453,-2.199921 5.9451,-4.330589 8.998,-6.389709 3.0528,-2.059062 6.1586,-4.04644 9.3145,-5.960031 3.1557,-1.913541 6.3619,-3.753681 9.6159,-5.516937 3.2539,-1.76333 6.5555,-3.45036 9.9029,-5.05867 3.3474,-1.60826 6.7403,-3.13741 10.1765,-4.58595 3.4361,-1.44851 6.9156,-2.81578 10.4357,-4.09981 3.52,-1.28402 7.0812,-2.48545 10.6805,-3.60026 3.5993,-1.11482 7.2373,-2.14366 10.911,-3.08453 3.6738,-0.94085 7.3829,-1.79317 11.1264,-2.55532 3.7435,-0.76214 7.5213,-1.43395 11.3299,-2.01266 3.8086,-0.57877 7.6485,-1.06426 11.5173,-1.45483 3.8689,-0.39056 7.7662,-0.68586 11.6905,-0.88346 3.9244,-0.19758 7.875,-0.29779 11.8502,-0.29779 3.9752,0 7.9267,0.10011 11.851,0.29779 3.9244,0.19758 7.8217,0.4929 11.6905,0.88346 3.8688,0.39057 7.7088,0.87606 11.5174,1.45483 3.8085,0.57871 7.5855,1.25052 11.329,2.01266 3.7435,0.76215 7.4534,1.61447 11.1272,2.55532 3.6737,0.94087 7.3118,1.96971 10.911,3.08453 3.5994,1.11481 7.1605,2.31624 10.6806,3.60026 3.5201,1.28403 6.9987,2.6513 10.4348,4.09981 3.4361,1.44854 6.8291,2.97769 10.1765,4.58595 3.3474,1.60831 6.6498,3.29534 9.9038,5.05867 3.254,1.763256 6.4601,3.603396 9.6159,5.516937 3.1558,1.913591 6.2607,3.900969 9.3136,5.960031 3.0529,2.05912 6.0535,4.189788 8.9988,6.389709 2.9453,2.199902 5.835,4.468982 8.6679,6.804969 2.8329,2.335922 5.6085,4.738542 8.3243,7.205861 2.7157,2.467271 5.3717,4.999421 7.9656,7.593301 2.5939,2.59393 5.126,5.249809 7.5933,7.96557 2.4673,2.71577 4.8699,5.491485 7.2059,8.324355 2.336,2.832851 4.605,5.722559 6.805,8.667864 2.1999,2.945222 4.3305,5.945886 6.3896,8.998809 2.0591,3.052861 4.0474,6.157812 5.961,9.313619 1.9135,3.155829 3.7527,6.361949 5.516,9.6159093 1.7633,3.253983 3.4504,6.556375 5.0587,9.90381702 1.6082,3.34742598 3.1374,6.74035298 4.586,10.17642468 1.4485,3.436165 2.8166,6.91479 4.1006,10.43483 1.2841,3.52008 2.4846,7.08123 3.5994,10.68055 1.1149,3.59929 2.1436,7.23727 3.0845,10.91107 0.9409,3.67374 1.7932,7.38371 2.5554,11.12716 0.7621,3.74356 1.4339,7.52049 2.0126,11.32907 0.5788,3.80852 1.0643,7.6486 1.4549,11.51735 0.3905,3.86881 0.6858,7.76615 0.8834,11.6905 0.1976,3.92433 0.2978,7.87588 0.2978,11.851014 v 142.6411 a 275.53441,275.53441 0 0 0 45.9224,-151.985214 275.53441,275.53441 0 0 0 -275.5344,-275.534406 z m 0,125.378889 c -3.1802,0 -6.3401,0.0795 -9.4796,0.237688 -3.1394,0.1582 -6.258,0.394351 -9.3531,0.70675 -3.0951,0.312481 -6.1672,0.701241 -9.2141,1.164241 -3.0468,0.462981 -6.0685,1.00023 -9.0633,1.609997 -2.9949,0.609711 -5.963,1.292254 -8.902,2.044983 -2.939,0.752663 -5.8485,1.575512 -8.7279,2.467385 -2.8795,0.891876 -5.7281,1.852793 -8.5441,2.88003 -2.8161,1.027231 -5.5997,2.121243 -8.3486,3.28005 -2.7489,1.158814 -5.4634,2.381758 -8.1413,3.668424 -2.678,1.2866 -5.3194,2.636258 -7.9226,4.046905 -2.6031,1.410655 -5.1682,2.882863 -7.6929,4.413742 -2.5246,1.530871 -5.0093,3.120755 -7.4516,4.768043 -2.4423,1.647264 -4.8425,3.351649 -7.1987,5.111568 -2.3562,1.759942 -4.6678,3.575502 -6.9341,5.444294 -2.2663,1.868807 -4.487,3.790706 -6.6596,5.764532 -2.1727,1.9738343 -4.2975,3.9996963 -6.3727,6.0748423 -2.0751,2.075114 -4.1,4.199149 -6.0739,6.37172502 -1.9739,2.17260198 -3.8966,4.39338498 -5.7654,6.65962798 -1.8688,2.266326 -3.6834,4.5788447 -5.4434,6.9350307 -1.7599,2.356189 -3.4652,4.756359 -5.1124,7.198679 -1.6474,2.44229 -3.2372,4.92612 -4.7681,7.45074 -1.5308,2.52463 -3.0023,5.08973 -4.4129,7.69293 -1.4106,2.60317 -2.7603,5.24455 -4.0468,7.92248 -1.2868,2.67793 -2.5106,5.39248 -3.6694,8.14134 -1.1588,2.74894 -2.2528,5.53253 -3.2801,8.34857 -1.0272,2.81604 -1.9872,5.66466 -2.8791,8.5441 -0.8918,2.87941 -1.7156,5.7898 -2.4683,8.72883 -0.7526,2.93905 -1.4344,5.90714 -2.0441,8.90196 -0.6097,2.99479 -1.147,6.01655 -1.61,9.06341 -0.4629,3.04681 -0.8517,6.118074 -1.1642,9.213164 -0.3124,3.09502 -0.5486,6.21361 -0.7068,9.3531 -0.1581,3.1395 -0.2385,6.30034 -0.2385,9.48045 v 171.44304 a 275.53438,275.53438 0 0 0 45.9225,33.29464 V 144.89769 c 0,-2.38511 0.061,-4.7553 0.1792,-7.10993 0.1186,-2.35458 0.2958,-4.6935 0.5301,-7.01482 0.2343,-2.32132 0.5254,-4.62479 0.8726,-6.90989 0.3473,-2.28512 0.7501,-4.55165 1.2074,-6.7978 0.4573,-2.24608 0.9692,-4.47236 1.5337,-6.67663 0.5644,-2.2043 1.1814,-4.38706 1.8503,-6.54667 0.6689,-2.15953 1.3894,-4.295564 2.1598,-6.407604 0.7704,-2.11203 1.5911,-4.19975 2.4602,-6.26141 0.8692,-2.06166 1.7868,-4.09782 2.7518,-6.10627 0.965,-2.00837 1.9772,-3.98886 3.0352,-5.94116 1.0579,-1.95239 2.1615,-3.87645 3.3096,-5.76991 1.1481,-1.89347 2.3406,-3.757 3.576,-5.58873 1.2355,-1.83174 2.5145,-3.63144 3.8344,-5.39857 1.3199,-1.76716 2.6812,-3.50154 4.0828,-5.20127 1.4016,-1.69973 2.8436,-3.36459 4.3241,-4.99406 1.4803,-1.62942 2.9991,-3.22335 4.5554,-4.77971 1.5563,-1.55631 3.1502,-3.07598 4.7797,-4.55633 1.6295,-1.4804 3.2943,-2.92159 4.9941,-4.32317 1.6997,-1.40161 3.4341,-2.76284 5.2012,-4.08278 1.7672,-1.31995 3.5669,-2.59887 5.3986,-3.83434 1.8317,-1.23548 3.6952,-2.42791 5.5887,-3.57603 1.8935,-1.14814 3.8175,-2.25166 5.7699,-3.30967 1.9524,-1.05797 3.9337,-2.07018 5.9421,-3.03515 2.0085,-0.96496 4.0437,-1.88266 6.1054,-2.751763 2.0617,-0.869122 4.1493,-1.689841 6.2614,-2.460286 2.112,-0.770395 4.2489,-1.490872 6.4085,-2.15977 2.1596,-0.668883 4.3415,-1.28583 6.5457,-1.850348 2.2043,-0.564525 4.4306,-1.076431 6.6767,-1.5337127 2.2461,-0.457327 4.5127,-0.860041 6.7978,-1.20728 2.2851,-0.347247 4.5886,-0.639263 6.9099,-0.873612 2.3212,-0.234352 4.6602,-0.411472 7.0148,-0.530082 2.3546,-0.118602 4.7248,-0.178443 7.1099,-0.178443 2.3851,0 4.7562,0.05981 7.1108,0.178443 2.3546,0.118594 4.6935,0.29573 7.0148,0.530082 2.3213,0.234349 4.6248,0.526365 6.9099,0.873612 2.2851,0.347239 4.5517,0.749953 6.7978,1.20728 2.2461,0.4572817 4.4715,0.9691877 6.6757,1.5337127 2.2043,0.564518 4.3871,1.181465 6.5467,1.850348 2.1595,0.668898 4.2965,1.389375 6.4085,2.15977 2.112,0.770445 4.1998,1.591164 6.2614,2.460286 2.0617,0.869103 4.0969,1.786803 6.1053,2.751763 2.0085,0.96497 3.9898,1.97718 5.9422,3.03515 1.9524,1.05801 3.8764,2.16153 5.7699,3.30967 1.8934,1.14812 3.756,2.34055 5.5878,3.57603 1.8317,1.23547 3.6323,2.51439 5.3995,3.83434 1.7671,1.31994 3.5015,2.68117 5.2012,4.08278 1.6997,1.40158 3.3646,2.84277 4.9941,4.32317 1.6294,1.48035 3.2233,3.00002 4.7797,4.55633 1.5563,1.55636 3.0751,3.15029 4.5554,4.77971 1.4804,1.62947 2.9225,3.29433 4.3241,4.99406 1.4016,1.69973 2.7629,3.43411 4.0828,5.20127 1.3199,1.76713 2.598,3.56683 3.8334,5.39857 1.2355,1.83173 2.4288,3.69526 3.577,5.58873 1.1481,1.89346 2.2516,3.81752 3.3096,5.76991 1.058,1.9523 2.0702,3.93279 3.0352,5.94116 0.965,2.00845 1.8826,4.04461 2.7517,6.10627 0.8691,2.06166 1.6899,4.14938 2.4603,6.26141 0.7704,2.11204 1.49,4.248074 2.1589,6.407604 0.6689,2.15961 1.2867,4.34237 1.8512,6.54667 0.5645,2.20427 1.0765,4.43055 1.5338,6.67663 0.4573,2.24615 0.86,4.51268 1.2073,6.7978 0.3472,2.2851 0.6383,4.58857 0.8726,6.90989 0.2343,2.32132 0.4115,4.66024 0.5301,7.01482 0.1186,2.35463 0.1785,4.72482 0.1785,7.10993 v 184.19816 a 275.53438,275.53438 0 0 0 45.9224,-33.11261 V 124.58955 c 0,-3.18011 -0.08,-6.34095 -0.2377,-9.48045 -0.1582,-3.13949 -0.3943,-6.25808 -0.7068,-9.3531 -0.3124,-3.09509 -0.7012,-6.166354 -1.1642,-9.213164 -0.4629,-3.04686 -1.0002,-6.06862 -1.6099,-9.06341 -0.6098,-2.99482 -1.2923,-5.96291 -2.045,-8.90196 -0.7527,-2.93903 -1.5756,-5.84942 -2.4675,-8.72883 -0.8918,-2.87944 -1.8519,-5.72806 -2.8791,-8.5441 -1.0272,-2.81604 -2.1212,-5.59963 -3.28,-8.34857 -1.1588,-2.74886 -2.3827,-5.46341 -3.6693,-8.14134 -1.2867,-2.67793 -2.6363,-5.31931 -4.0469,-7.92248 -1.4107,-2.6032 -2.882,-5.1683 -4.4129,-7.69293 -1.5309,-2.52462 -3.1217,-5.00845 -4.769,-7.45074 -1.6472,-2.44232 -3.3516,-4.84249 -5.1115,-7.198679 -1.7599,-2.356186 -3.5755,-4.6687047 -5.4443,-6.9350307 -1.8688,-2.266243 -3.7907,-4.487026 -5.7645,-6.65962798 -1.9739,-2.17257602 -3.9989,-4.29661102 -6.074,-6.37172502 -2.0751,-2.075146 -4.2,-4.101008 -6.3726,-6.0748423 -2.1726,-1.973826 -4.3934,-3.895725 -6.6597,-5.764532 -2.2663,-1.868792 -4.5788,-3.684352 -6.935,-5.444294 -2.3561,-1.759919 -4.7564,-3.464304 -7.1987,-5.111568 -2.4423,-1.647288 -4.926,-3.237172 -7.4507,-4.768043 -2.5246,-1.530879 -5.0897,-3.003087 -7.6929,-4.413742 -2.6032,-1.410647 -5.2446,-2.760305 -7.9225,-4.046905 -2.6779,-1.286666 -5.3925,-2.50961 -8.1414,-3.668424 -2.7488,-1.158807 -5.5325,-2.252819 -8.3485,-3.28005 -2.8161,-1.027237 -5.6647,-1.988154 -8.5441,-2.88003 -2.8794,-0.891873 -5.7898,-1.714722 -8.7289,-2.467385 -2.9389,-0.752729 -5.9062,-1.435272 -8.901,-2.044983 -2.9948,-0.609767 -6.0166,-1.147016 -9.0634,-1.609997 -3.0468,-0.463 -6.119,-0.85176 -9.2141,-1.164241 -3.095,-0.312399 -6.2135,-0.548608 -9.353,-0.70675 -3.1395,-0.1582 -6.3004,-0.237688 -9.4805,-0.237688 z m 0,127.326157 c -1.5901,0 -3.1696,0.0402 -4.7393,0.11926 -1.5698,0.0792 -3.1291,0.19714 -4.6766,0.35341 -1.5476,0.15622 -3.0841,0.35069 -4.6075,0.58205 -1.5234,0.23151 -3.0338,0.49968 -4.5313,0.80457 -2.9948,0.60971 -5.9355,1.36482 -8.8149,2.25667 -2.8794,0.89187 -5.6974,1.92122 -8.4463,3.08002 -2.7489,1.15882 -5.4287,2.44702 -8.0319,3.85767 -2.6032,1.41063 -5.1305,2.94315 -7.5727,4.59045 -2.4424,1.64729 -4.7997,3.4096 -7.066,5.27836 -2.2663,1.8688 -4.441,3.84458 -6.5161,5.91965 -2.0751,2.07515 -4.0509,4.249 -5.9197,6.515294 -1.8688,2.26631 -3.6311,4.62454 -5.2784,7.06683 -1.6473,2.44232 -3.1798,4.96954 -4.5905,7.57275 -1.4106,2.60315 -2.6988,5.28214 -3.8576,8.031 -1.1589,2.74889 -2.1882,5.56689 -3.0801,8.44632 -0.8918,2.87941 -1.646,5.82102 -2.2557,8.81587 -0.3049,1.49738 -0.574,3.00783 -0.8055,4.53125 -0.2314,1.52339 -0.4258,3.05993 -0.5821,4.60751 -0.1562,1.54746 -0.2743,3.10589 -0.3533,4.67561 -0.079,1.56977 -0.1193,3.15018 -0.1193,4.74025 V 350.5466 a 275.53438,275.53438 0 0 0 45.9224,11.77298 V 184.85912 c 0,-1.59007 0.081,-3.16043 0.2368,-4.70797 0.1563,-1.5475 0.3885,-3.0724 0.6933,-4.56981 0.3049,-1.49741 0.6824,-2.96775 1.1284,-4.40748 0.4459,-1.4397 0.9606,-2.84824 1.54,-4.2227 0.5794,-1.37445 1.223,-2.71483 1.9284,-4.01642 0.7053,-1.30157 1.4715,-2.56477 2.2952,-3.78587 0.8236,-1.22119 1.7052,-2.39985 2.6396,-3.53299 0.9344,-1.13315 1.9223,-2.22096 2.9599,-3.25852 1.0375,-1.03759 2.1244,-2.02547 3.2576,-2.95985 1.1331,-0.93437 2.3118,-1.81514 3.5329,-2.63874 1.2212,-0.8237 2.4844,-1.58993 3.786,-2.29523 1.3016,-0.7053 2.642,-1.34988 4.0164,-1.92926 1.3744,-0.57942 2.783,-1.09318 4.2227,-1.53914 1.4397,-0.4459 2.9109,-0.82346 4.4084,-1.12831 1.4974,-0.30488 3.0214,-0.53711 4.5689,-0.69332 1.5475,-0.15623 3.1179,-0.2368 4.7079,-0.2368 1.5901,0 3.1613,0.0805 4.7088,0.2368 1.5476,0.15621 3.0716,0.38844 4.569,0.69332 1.4974,0.30485 2.9678,0.68241 4.4075,1.12831 1.4397,0.44596 2.8491,0.95972 4.2236,1.53914 1.3744,0.57938 2.7139,1.22396 4.0155,1.92926 1.3016,0.7053 2.5647,1.47153 3.7859,2.29523 1.2211,0.8236 2.4007,1.70437 3.5339,2.63874 1.1331,0.93438 2.22,1.92226 3.2576,2.95985 1.0376,1.03756 2.0254,2.12537 2.9598,3.25852 0.9345,1.13314 1.8152,2.3118 2.6388,3.53299 0.8236,1.2211 1.5899,2.4843 2.2952,3.78587 0.7053,1.30159 1.3499,2.64197 1.9293,4.01642 0.5794,1.37446 1.094,2.783 1.54,4.2227 0.4459,1.43973 0.8234,2.91007 1.1283,4.40748 0.3049,1.49741 0.5371,3.02231 0.6934,4.56981 0.1562,1.54754 0.2358,3.1179 0.2358,4.70797 v 177.31965 a 275.53438,275.53438 0 0 0 45.9224,-11.87432 V 160.07089 c 0,-1.59007 -0.039,-3.17048 -0.1184,-4.74025 -0.079,-1.56972 -0.1971,-3.12815 -0.3533,-4.67561 -0.1562,-1.54758 -0.3506,-3.08412 -0.5821,-4.60751 -0.2315,-1.52342 -0.5006,-3.03387 -0.8055,-4.53125 -0.6097,-2.99485 -1.3639,-5.93646 -2.2557,-8.81587 -0.8919,-2.87943 -1.9212,-5.69743 -3.08,-8.44632 -1.1589,-2.74886 -2.4471,-5.42785 -3.8577,-8.031 -1.4107,-2.60321 -2.9441,-5.13043 -4.5914,-7.57275 -1.6473,-2.44229 -3.4087,-4.80052 -5.2775,-7.06683 -1.8687,-2.266294 -3.8445,-4.440144 -5.9197,-6.515294 -2.075,-2.07507 -4.2498,-4.05085 -6.516,-5.91965 -2.2664,-1.86876 -4.6246,-3.63107 -7.0669,-5.27836 -2.4423,-1.6473 -4.9686,-3.17982 -7.5718,-4.59045 -2.6032,-1.41065 -5.2831,-2.69885 -8.032,-3.85767 -2.7489,-1.1588 -5.5669,-2.18815 -8.4463,-3.08002 -2.8794,-0.89185 -5.8201,-1.64696 -8.8149,-2.25667 -1.4975,-0.30489 -3.0079,-0.57306 -4.5313,-0.80457 -1.5234,-0.23136 -3.0599,-0.42583 -4.6075,-0.58205 -1.5475,-0.15623 -3.1068,-0.27435 -4.6765,-0.35341 -1.5697,-0.079 -3.1502,-0.11926 -4.7402,-0.11926 z"
       id="path5395"
       inkscape:connector-curvature="0"
       inkscape:export-filename="C:\Users\ericc\Documents\GitHub\attackathon\TextFullWhite.png"
       inkscape:export-xdpi="75.33783"
       inkscape:export-ydpi="75.33783" />
  </g>
</svg>
