<?xml version="1.0" encoding="UTF-8" standalone="no"?>
<!-- Created with Inkscape (http://www.inkscape.org/) -->

<svg
   xmlns:dc="http://purl.org/dc/elements/1.1/"
   xmlns:cc="http://creativecommons.org/ns#"
   xmlns:rdf="http://www.w3.org/1999/02/22-rdf-syntax-ns#"
   xmlns:svg="http://www.w3.org/2000/svg"
   xmlns="http://www.w3.org/2000/svg"
   xmlns:sodipodi="http://sodipodi.sourceforge.net/DTD/sodipodi-0.dtd"
   xmlns:inkscape="http://www.inkscape.org/namespaces/inkscape"
   width="4000"
   height="2000"
   viewBox="0 0 1058.3334 529.16665"
   version="1.1"
   id="svg6969"
   inkscape:version="0.92.3 (2405546, 2018-03-11)"
   sodipodi:docname="TwitterBanner.svg">
  <defs
     id="defs6963" />
  <sodipodi:namedview
     id="base"
     pagecolor="#133ef1"
     bordercolor="#666666"
     borderopacity="1.0"
     inkscape:pageopacity="0"
     inkscape:pageshadow="2"
     inkscape:zoom="0.175"
     inkscape:cx="2220.1266"
     inkscape:cy="1311.5853"
     inkscape:document-units="mm"
     inkscape:current-layer="layer1"
     showgrid="false"
     fit-margin-top="0"
     fit-margin-left="0"
     fit-margin-right="0"
     fit-margin-bottom="0"
     inkscape:window-width="1842"
     inkscape:window-height="1051"
     inkscape:window-x="69"
     inkscape:window-y="-9"
     inkscape:window-maximized="1"
     units="px" />
  <metadata
     id="metadata6966">
    <rdf:RDF>
      <cc:Work
         rdf:about="">
        <dc:format>image/svg+xml</dc:format>
        <dc:type
           rdf:resource="http://purl.org/dc/dcmitype/StillImage" />
        <dc:title></dc:title>
      </cc:Work>
    </rdf:RDF>
  </metadata>
  <g
     inkscape:label="Layer 1"
     inkscape:groupmode="layer"
     id="layer1"
     transform="translate(1759.5127,-238.83314)">
    <g
       id="g7744"
       transform="translate(5.8874532e-5,-64.628514)">
      <g
         transform="matrix(0.26607787,0,0,0.26607787,-1080.3369,371.81422)"
         id="g7726">
        <path
           inkscape:export-ydpi="75.33783"
           inkscape:export-xdpi="75.33783"
           inkscape:export-filename="C:\Users\ericc\Documents\GitHub\attackathon\TextFullWhite.png"
           inkscape:connector-curvature="0"
           id="path5395"
           d="m -1483.9783,221.20126 a 275.53441,275.53441 0 0 0 -275.5344,275.53441 275.53441,275.53441 0 0 0 45.9223,152.0067 v -142.6626 c 0,-3.97515 0.1002,-7.92668 0.2979,-11.85103 0.1976,-3.92432 0.4929,-7.82166 0.8834,-11.69047 0.3906,-3.86876 0.877,-7.70884 1.4557,-11.51735 0.5787,-3.80859 1.2497,-7.58552 2.0118,-11.32908 0.7621,-3.74345 1.6154,-7.45341 2.5563,-11.12716 0.9408,-3.67379 1.9696,-7.31178 3.0845,-10.91107 1.1148,-3.59932 2.3153,-7.16047 3.5993,-10.68055 1.2841,-3.52004 2.6513,-6.99866 4.0999,-10.43482 1.4485,-3.43608 2.9785,-6.82901 4.5868,-10.17643 1.6083,-3.34744 3.2954,-6.64983 5.0586,-9.90382 1.7634,-3.25396 3.6026,-6.46008 5.5161,-9.61591 1.9136,-3.15581 3.901,-6.26076 5.9601,-9.31361 2.059,-3.05293 4.1897,-6.05359 6.3897,-8.99881 2.1999,-2.94531 4.4698,-5.83501 6.8057,-8.66787 2.3361,-2.83287 4.7387,-5.60858 7.206,-8.32435 2.4673,-2.71576 4.9985,-5.37164 7.5923,-7.96557 2.594,-2.59388 5.2508,-5.12603 7.9666,-7.5933 2.7157,-2.46732 5.4906,-4.86994 8.3234,-7.20586 2.8329,-2.33599 5.7235,-4.60507 8.6687,-6.80497 2.9453,-2.19992 5.9451,-4.33059 8.998,-6.38971 3.0528,-2.05906 6.1587,-4.04644 9.3145,-5.96003 3.1557,-1.91354 6.3619,-3.75368 9.6159,-5.51694 3.2539,-1.76333 6.5555,-3.45036 9.9029,-5.05867 3.3474,-1.60826 6.7404,-3.13741 10.1765,-4.58595 3.4361,-1.44851 6.9156,-2.81578 10.4357,-4.09981 3.52,-1.28402 7.0812,-2.48545 10.6805,-3.60026 3.5993,-1.11482 7.2373,-2.14366 10.9111,-3.08453 3.6737,-0.94085 7.3828,-1.79317 11.1263,-2.55532 3.7435,-0.76214 7.5213,-1.43395 11.3299,-2.01266 3.8086,-0.57877 7.6485,-1.06426 11.5174,-1.45483 3.8688,-0.39056 7.7661,-0.68586 11.6904,-0.88346 3.9244,-0.19758 7.8751,-0.29779 11.8502,-0.29779 3.9752,0 7.9267,0.10011 11.851,0.29779 3.9244,0.19758 7.8217,0.4929 11.6905,0.88346 3.8688,0.39057 7.7088,0.87606 11.5174,1.45483 3.8085,0.57871 7.5855,1.25052 11.329,2.01266 3.7435,0.76215 7.4535,1.61447 11.1272,2.55532 3.6738,0.94087 7.3118,1.96971 10.911,3.08453 3.5994,1.11481 7.1605,2.31624 10.6807,3.60026 3.52,1.28403 6.9986,2.6513 10.4347,4.09981 3.4361,1.44854 6.8291,2.97769 10.1765,4.58595 3.3474,1.60831 6.6498,3.29534 9.9038,5.05867 3.254,1.76326 6.4601,3.6034 9.6159,5.51694 3.1558,1.91359 6.2607,3.90097 9.3137,5.96003 3.0528,2.05912 6.0535,4.18979 8.9988,6.38971 2.9452,2.1999 5.8349,4.46898 8.6678,6.80497 2.8329,2.33592 5.6086,4.73854 8.3243,7.20586 2.7158,2.46727 5.3717,4.99942 7.9656,7.5933 2.5939,2.59393 5.126,5.24981 7.5934,7.96557 2.4672,2.71577 4.8698,5.49148 7.2058,8.32435 2.336,2.83286 4.6051,5.72256 6.805,8.66787 2.1999,2.94522 4.3305,5.94588 6.3896,8.99881 2.0591,3.05285 4.0474,6.1578 5.961,9.31361 1.9135,3.15583 3.7528,6.36195 5.516,9.61591 1.7633,3.25399 3.4504,6.55638 5.0587,9.90382 1.6083,3.34742 3.1374,6.74035 4.586,10.17643 1.4485,3.43616 2.8166,6.91478 4.1006,10.43482 1.2842,3.52008 2.4846,7.08123 3.5994,10.68055 1.1149,3.59929 2.1437,7.23728 3.0845,10.91107 0.9409,3.67375 1.7932,7.38371 2.5554,11.12716 0.7622,3.74356 1.434,7.52049 2.0127,11.32908 0.5787,3.80851 1.0642,7.64859 1.4548,11.51735 0.3905,3.86881 0.6858,7.76614 0.8835,11.69047 0.1976,3.92435 0.2977,7.87588 0.2977,11.85103 v 142.6411 a 275.53441,275.53441 0 0 0 45.9224,-151.9852 275.53441,275.53441 0 0 0 -275.5344,-275.53441 z m 0,125.37889 c -3.1801,0 -6.3401,0.0795 -9.4796,0.23769 -3.1394,0.1582 -6.258,0.39435 -9.3531,0.70675 -3.095,0.31248 -6.1672,0.70124 -9.2141,1.16424 -3.0468,0.46298 -6.0685,1.00023 -9.0633,1.60999 -2.9949,0.60972 -5.963,1.29226 -8.902,2.04499 -2.939,0.75266 -5.8485,1.57551 -8.7279,2.46738 -2.8795,0.89188 -5.7281,1.85279 -8.5441,2.88003 -2.8161,1.02723 -5.5997,2.12125 -8.3486,3.28005 -2.7488,1.15882 -5.4634,2.38176 -8.1413,3.66843 -2.6779,1.2866 -5.3193,2.63626 -7.9226,4.0469 -2.6031,1.41065 -5.1682,2.88286 -7.6929,4.41374 -2.5246,1.53087 -5.0093,3.12076 -7.4516,4.76805 -2.4423,1.64726 -4.8425,3.35165 -7.1987,5.11156 -2.3561,1.75995 -4.6678,3.57551 -6.9341,5.4443 -2.2663,1.86881 -4.487,3.7907 -6.6596,5.76453 -2.1726,1.97383 -4.2975,3.99969 -6.3727,6.07484 -2.0751,2.07511 -4.1,4.19915 -6.0739,6.37173 -1.9739,2.1726 -3.8966,4.39338 -5.7654,6.65962 -1.8688,2.26633 -3.6834,4.57885 -5.4434,6.93503 -1.7599,2.35619 -3.4652,4.75636 -5.1124,7.19869 -1.6474,2.44228 -3.2372,4.92611 -4.7681,7.45073 -1.5308,2.52463 -3.0023,5.08974 -4.4129,7.69293 -1.4106,2.60317 -2.7603,5.24455 -4.0468,7.92248 -1.2868,2.67793 -2.5106,5.39248 -3.6694,8.14135 -1.1588,2.74894 -2.2528,5.53252 -3.2801,8.34856 -1.0272,2.81604 -1.9872,5.66467 -2.8791,8.5441 -0.8918,2.87941 -1.7156,5.7898 -2.4683,8.72884 -0.7526,2.93902 -1.4344,5.90714 -2.0441,8.90193 -0.6097,2.9948 -1.147,6.01658 -1.61,9.06341 -0.4629,3.04681 -0.8517,6.11809 -1.1642,9.21319 -0.3124,3.09502 -0.5486,6.21361 -0.7068,9.3531 -0.1581,3.1395 -0.2385,6.30034 -0.2385,9.48046 v 171.443 a 275.53438,275.53438 0 0 0 45.9225,33.2947 v -184.4296 c 0,-2.3851 0.061,-4.7553 0.1792,-7.1099 0.1186,-2.3546 0.2958,-4.6935 0.5301,-7.0148 0.2343,-2.3213 0.5254,-4.6248 0.8726,-6.9099 0.3473,-2.28513 0.7501,-4.55166 1.2074,-6.79781 0.4573,-2.24608 0.9692,-4.47236 1.5337,-6.67663 0.5644,-2.2043 1.1814,-4.38706 1.8503,-6.54667 0.6689,-2.15953 1.3894,-4.29559 2.1598,-6.4076 0.7704,-2.11204 1.5912,-4.19976 2.4603,-6.26142 0.8691,-2.06166 1.7867,-4.09781 2.7517,-6.10626 0.965,-2.00837 1.9773,-3.98886 3.0352,-5.94116 1.058,-1.9524 2.1615,-3.87646 3.3096,-5.76991 1.1481,-1.89347 2.3406,-3.757 3.576,-5.58874 1.2355,-1.83173 2.5145,-3.63143 3.8345,-5.39857 1.3198,-1.76715 2.6812,-3.50154 4.0827,-5.20127 1.4016,-1.69973 2.8436,-3.36459 4.3241,-4.99405 1.4804,-1.62943 2.9991,-3.22336 4.5554,-4.77971 1.5563,-1.55631 3.1502,-3.07598 4.7797,-4.55634 1.6295,-1.4804 3.2943,-2.92158 4.9941,-4.32317 1.6997,-1.4016 3.4341,-2.76284 5.2012,-4.08277 1.7672,-1.31996 3.5669,-2.59888 5.3986,-3.83435 1.8317,-1.23548 3.6952,-2.42791 5.5887,-3.57603 1.8935,-1.14814 3.8175,-2.25165 5.7699,-3.30966 1.9524,-1.05798 3.9337,-2.07018 5.9422,-3.03515 2.0084,-0.96497 4.0436,-1.88267 6.1053,-2.75177 2.0617,-0.86912 4.1493,-1.68984 6.2614,-2.46028 2.112,-0.7704 4.2489,-1.49088 6.4085,-2.15977 2.1596,-0.66889 4.3415,-1.28583 6.5457,-1.85035 2.2043,-0.56453 4.4306,-1.07643 6.6767,-1.53372 2.2461,-0.45732 4.5127,-0.86004 6.7978,-1.20728 2.2851,-0.34724 4.5886,-0.63926 6.9099,-0.87361 2.3213,-0.23435 4.6602,-0.41147 7.0148,-0.53008 2.3546,-0.1186 4.7248,-0.17844 7.1099,-0.17844 2.3851,0 4.7562,0.0598 7.1108,0.17844 2.3546,0.11859 4.6935,0.29573 7.0148,0.53008 2.3213,0.23435 4.6248,0.52637 6.9099,0.87361 2.2851,0.34724 4.5517,0.74996 6.7978,1.20728 2.2461,0.45729 4.4715,0.96919 6.6758,1.53372 2.2043,0.56452 4.387,1.18146 6.5466,1.85035 2.1596,0.66889 4.2965,1.38937 6.4086,2.15977 2.1119,0.77044 4.1997,1.59116 6.2613,2.46028 2.0617,0.8691 4.097,1.7868 6.1054,2.75177 2.0084,0.96497 3.9897,1.97717 5.9421,3.03515 1.9524,1.05801 3.8764,2.16152 5.7699,3.30966 1.8934,1.14812 3.7561,2.34055 5.5878,3.57603 1.8318,1.23547 3.6323,2.51439 5.3995,3.83435 1.7672,1.31993 3.5015,2.68117 5.2012,4.08277 1.6997,1.40159 3.3646,2.84277 4.9941,4.32317 1.6294,1.48036 3.2233,3.00003 4.7797,4.55634 1.5563,1.55635 3.0751,3.15028 4.5555,4.77971 1.4804,1.62946 2.9225,3.29432 4.324,4.99405 1.4016,1.69973 2.7629,3.43412 4.0828,5.20127 1.32,1.76714 2.598,3.56684 3.8334,5.39857 1.2355,1.83174 2.4288,3.69527 3.577,5.58874 1.1481,1.89345 2.2516,3.81751 3.3096,5.76991 1.058,1.9523 2.0702,3.93278 3.0352,5.94116 0.965,2.00845 1.8826,4.0446 2.7517,6.10626 0.8692,2.06166 1.6899,4.14938 2.4603,6.26142 0.7705,2.11201 1.49,4.24807 2.1589,6.4076 0.6689,2.15961 1.2867,4.34237 1.8512,6.54667 0.5646,2.20427 1.0765,4.43055 1.5338,6.67663 0.4573,2.24615 0.86,4.51268 1.2073,6.79781 0.3472,2.2851 0.6383,4.5886 0.8727,6.9099 0.2343,2.3213 0.4115,4.6602 0.53,7.0148 0.1186,2.3546 0.1785,4.7248 0.1785,7.1099 v 184.1982 a 275.53438,275.53438 0 0 0 45.9224,-33.1126 v -171.3937 c 0,-3.18012 -0.08,-6.34096 -0.2377,-9.48046 -0.1582,-3.13949 -0.3943,-6.25808 -0.7067,-9.3531 -0.3125,-3.0951 -0.7013,-6.16638 -1.1643,-9.21319 -0.4629,-3.04683 -1.0002,-6.06861 -1.6099,-9.06341 -0.6098,-2.99479 -1.2923,-5.96291 -2.045,-8.90193 -0.7527,-2.93904 -1.5756,-5.84943 -2.4675,-8.72884 -0.8918,-2.87943 -1.8518,-5.72806 -2.8791,-8.5441 -1.0272,-2.81604 -2.1212,-5.59962 -3.28,-8.34856 -1.1588,-2.74887 -2.3827,-5.46342 -3.6693,-8.14135 -1.2867,-2.67793 -2.6363,-5.31931 -4.0469,-7.92248 -1.4107,-2.60319 -2.882,-5.1683 -4.4129,-7.69293 -1.5309,-2.52462 -3.1217,-5.00845 -4.7689,-7.45073 -1.6473,-2.44233 -3.3516,-4.8425 -5.1116,-7.19869 -1.7599,-2.35618 -3.5755,-4.6687 -5.4443,-6.93503 -1.8688,-2.26624 -3.7907,-4.48702 -5.7645,-6.65962 -1.9739,-2.17258 -3.9989,-4.29662 -6.074,-6.37173 -2.0751,-2.07515 -4.2,-4.10101 -6.3726,-6.07484 -2.1726,-1.97383 -4.3933,-3.89572 -6.6596,-5.76453 -2.2664,-1.86879 -4.5788,-3.68435 -6.9351,-5.4443 -2.3561,-1.75991 -4.7563,-3.4643 -7.1987,-5.11156 -2.4422,-1.64729 -4.926,-3.23718 -7.4507,-4.76805 -2.5246,-1.53088 -5.0897,-3.00309 -7.6928,-4.41374 -2.6033,-1.41064 -5.2447,-2.7603 -7.9226,-4.0469 -2.6779,-1.28667 -5.3924,-2.50961 -8.1414,-3.66843 -2.7488,-1.1588 -5.5324,-2.25282 -8.3485,-3.28005 -2.8161,-1.02724 -5.6646,-1.98815 -8.544,-2.88003 -2.8795,-0.89187 -5.7899,-1.71472 -8.7289,-2.46738 -2.939,-0.75273 -5.9063,-1.43527 -8.9011,-2.04499 -2.9948,-0.60976 -6.0166,-1.14701 -9.0634,-1.60999 -3.0468,-0.463 -6.119,-0.85176 -9.214,-1.16424 -3.0951,-0.3124 -6.2136,-0.54861 -9.3531,-0.70675 -3.1395,-0.1582 -6.3004,-0.23769 -9.4805,-0.23769 z m 0,127.32616 c -1.5901,0 -3.1696,0.0402 -4.7393,0.11925 -1.5698,0.0792 -3.1291,0.19714 -4.6766,0.35341 -1.5476,0.15622 -3.0841,0.35069 -4.6075,0.58205 -1.5234,0.23152 -3.0338,0.49969 -4.5312,0.80458 -2.9949,0.60971 -5.9356,1.36481 -8.815,2.25666 -2.8794,0.89187 -5.6974,1.92122 -8.4463,3.08003 -2.7489,1.15881 -5.4287,2.44702 -8.0319,3.85766 -2.6032,1.41064 -5.1304,2.94316 -7.5727,4.59046 -2.4424,1.64726 -4.7997,3.40958 -7.066,5.27835 -2.2663,1.86881 -4.441,3.84458 -6.5161,5.91966 -2.0751,2.07515 -4.0509,4.249 -5.9197,6.51528 -1.8688,2.26629 -3.6311,4.62455 -5.2784,7.06684 -1.6473,2.44232 -3.1798,4.96954 -4.5905,7.57275 -1.4106,2.60316 -2.6988,5.28214 -3.8576,8.03098 -1.1588,2.7489 -2.1882,5.5669 -3.08,8.4463 -0.8919,2.8794 -1.6461,5.8211 -2.2558,8.8159 -0.3049,1.4974 -0.574,3.0078 -0.8054,4.5313 -0.2315,1.5233 -0.4259,3.0599 -0.5821,4.6075 -0.1562,1.5474 -0.2743,3.1059 -0.3534,4.6756 -0.079,1.5697 -0.1193,3.1502 -0.1193,4.7402 v 190.4757 a 275.53438,275.53438 0 0 0 45.9224,11.773 v -177.4604 c 0,-1.5901 0.081,-3.1605 0.2368,-4.708 0.1563,-1.5475 0.3885,-3.0724 0.6933,-4.5698 0.3049,-1.4974 0.6825,-2.9678 1.1284,-4.4075 0.4459,-1.4397 0.9606,-2.8482 1.54,-4.2227 0.5794,-1.3745 1.2231,-2.7148 1.9284,-4.0164 0.7053,-1.3016 1.4716,-2.5648 2.2952,-3.7859 0.8236,-1.2212 1.7053,-2.3998 2.6397,-3.533 0.9343,-1.1331 1.9222,-2.2209 2.9598,-3.2585 1.0375,-1.0376 2.1244,-2.0255 3.2576,-2.9598 1.1332,-0.9344 2.3118,-1.8152 3.533,-2.6388 1.2212,-0.8237 2.4843,-1.5899 3.7859,-2.2952 1.3016,-0.7053 2.642,-1.3499 4.0164,-1.9293 1.3744,-0.5794 2.783,-1.0932 4.2227,-1.5391 1.4397,-0.446 2.911,-0.8235 4.4084,-1.1283 1.4974,-0.3049 3.0214,-0.5372 4.5689,-0.6934 1.5476,-0.1562 3.1179,-0.2368 4.7079,-0.2368 1.5901,0 3.1614,0.081 4.7089,0.2368 1.5475,0.1562 3.0715,0.3885 4.5689,0.6934 1.4974,0.3048 2.9678,0.6823 4.4075,1.1283 1.4397,0.4459 2.8491,0.9597 4.2236,1.5391 1.3744,0.5794 2.7139,1.224 4.0155,1.9293 1.3016,0.7053 2.5648,1.4715 3.7859,2.2952 1.2211,0.8236 2.4007,1.7044 3.5339,2.6388 1.1331,0.9343 2.22,1.9222 3.2576,2.9598 1.0376,1.0376 2.0254,2.1254 2.9598,3.2585 0.9345,1.1332 1.8152,2.3118 2.6388,3.533 0.8237,1.2211 1.5899,2.4843 2.2952,3.7859 0.7053,1.3016 1.3499,2.6419 1.9293,4.0164 0.5794,1.3745 1.0941,2.783 1.54,4.2227 0.4459,1.4397 0.8234,2.9101 1.1283,4.4075 0.3049,1.4974 0.5372,3.0223 0.6934,4.5698 0.1562,1.5475 0.2358,3.1179 0.2358,4.708 v 177.3196 a 275.53438,275.53438 0 0 0 45.9224,-11.8743 v -190.2336 c 0,-1.59 -0.039,-3.1705 -0.1183,-4.7402 -0.079,-1.5697 -0.1972,-3.1282 -0.3534,-4.6756 -0.1562,-1.5476 -0.3506,-3.0842 -0.5821,-4.6075 -0.2315,-1.5235 -0.5006,-3.0339 -0.8055,-4.5313 -0.6097,-2.9948 -1.3639,-5.9365 -2.2557,-8.8159 -0.8919,-2.8794 -1.9212,-5.6974 -3.08,-8.4463 -1.1589,-2.74884 -2.4471,-5.42782 -3.8577,-8.03098 -1.4107,-2.60321 -2.9441,-5.13043 -4.5914,-7.57275 -1.6472,-2.44229 -3.4087,-4.80055 -5.2775,-7.06684 -1.8687,-2.26628 -3.8445,-4.44013 -5.9196,-6.51528 -2.0751,-2.07508 -4.2499,-4.05085 -6.5161,-5.91966 -2.2664,-1.86878 -4.6246,-3.63109 -7.0669,-5.27835 -2.4423,-1.6473 -4.9686,-3.17982 -7.5718,-4.59046 -2.6032,-1.41064 -5.2831,-2.69885 -8.032,-3.85766 -2.7488,-1.15881 -5.5668,-2.18816 -8.4463,-3.08003 -2.8794,-0.89185 -5.8201,-1.64695 -8.8149,-2.25666 -1.4975,-0.30489 -3.0079,-0.57306 -4.5313,-0.80458 -1.5234,-0.23136 -3.0599,-0.42583 -4.6074,-0.58205 -1.5476,-0.15622 -3.1069,-0.27435 -4.6766,-0.35341 -1.5697,-0.079 -3.1502,-0.11925 -4.7402,-0.11925 z"
           style="font-style:normal;font-variant:normal;font-weight:normal;font-stretch:normal;font-size:medium;line-height:1.25;font-family:usual;-inkscape-font-specification:usual;letter-spacing:0px;word-spacing:0px;opacity:1;fill:#ffffff;fill-opacity:1;stroke:none;stroke-width:89.94634247;stroke-linecap:butt;stroke-linejoin:bevel;stroke-miterlimit:4;stroke-dasharray:none;stroke-opacity:1;paint-order:markers fill stroke" />
        <g
           aria-label="Keycore"
           style="font-style:normal;font-variant:normal;font-weight:normal;font-stretch:normal;font-size:461.50009155px;line-height:1.25;font-family:usual;-inkscape-font-specification:usual;letter-spacing:0px;word-spacing:0px;fill:#ffffff;fill-opacity:1;stroke:none;stroke-width:1.15375006"
           id="text7643">
          <path
             inkscape:connector-curvature="0"
             d="m -1033.2515,668.70459 h 81.12305 v -90.95616 l 32.44922,-40.97125 83.58134,131.92741 h 97.01991 l -121.111,-185.84556 118.98049,-149.79087 h -95.54494 l -110.95013,141.92439 h -4.42489 V 333.06816 h -81.12305 z"
             style="font-style:normal;font-variant:normal;font-weight:800;font-stretch:normal;font-family:'inter ui';-inkscape-font-specification:'inter ui Ultra-Bold';letter-spacing:-28.34334373px;fill:#ffffff;fill-opacity:1;stroke-width:1.15375006"
             id="path7702" />
          <path
             inkscape:connector-curvature="0"
             d="m -638.36192,673.45725 c 66.04565,0 109.47517,-31.95757 118.65272,-81.45083 l -73.58435,-2.1305 c -6.22763,16.71626 -22.61613,25.72994 -43.5934,25.72994 -30.81038,0 -49.82104,-20.48562 -49.82104,-51.296 v -2.1305 h 167.81822 v -19.99397 c 0,-82.9258 -50.47657,-128.48582 -121.93042,-128.48582 -76.04263,0 -124.88035,52.11542 -124.88035,130.12467 0,80.63141 48.18218,129.63301 127.33862,129.63301 z m -48.34607,-157.82123 c 1.1472,-25.0744 20.97728,-44.08506 47.52665,-44.08506 26.38548,0 45.39613,18.35512 45.7239,44.08506 z"
             style="font-style:normal;font-variant:normal;font-weight:800;font-stretch:normal;font-family:'inter ui';-inkscape-font-specification:'inter ui Ultra-Bold';letter-spacing:-28.34334373px;fill:#ffffff;fill-opacity:1;stroke-width:1.15375006"
             id="path7704" />
          <path
             inkscape:connector-curvature="0"
             d="m -465.0448,766.87169 c 56.37643,0 88.82565,-32.44922 102.91976,-73.25658 l 95.05329,-276.63784 h -84.40076 L -398.5075,596.5952 h -2.62216 l -46.37945,-179.61793 h -83.90911 l 89.4812,260.90488 -3.2777,8.35813 c -8.6859,17.86346 -25.23829,18.84677 -48.67384,10.9803 l -17.69958,60.96521 c 9.34145,3.76935 24.58275,8.6859 46.54334,8.6859 z"
             style="font-style:normal;font-variant:normal;font-weight:800;font-stretch:normal;font-family:'inter ui';-inkscape-font-specification:'inter ui Ultra-Bold';letter-spacing:-28.34334373px;fill:#ffffff;fill-opacity:1;stroke-width:1.15375006"
             id="path7706" />
          <path
             inkscape:connector-curvature="0"
             d="m -155.29341,673.45725 c 70.798307,0 114.719481,-41.13512 116.849986,-103.41142 h -74.895436 c -2.94993,26.71326 -19.01066,41.29902 -40.97124,41.29902 -28.18822,0 -46.54334,-23.76332 -46.54334,-68.50392 0,-44.41283 18.51901,-68.17615 46.54334,-68.17615 22.94389,0 37.85743,15.56907 40.97124,41.29901 h 74.895436 C -40.246159,454.01527 -85.478412,413.69957 -155.4573,413.69957 c -79.15644,0 -127.01085,52.77096 -127.01085,129.96078 0,76.86206 47.52664,129.7969 127.17474,129.7969 z"
             style="font-style:normal;font-variant:normal;font-weight:800;font-stretch:normal;font-family:'inter ui';-inkscape-font-specification:'inter ui Ultra-Bold';letter-spacing:-28.34334373px;fill:#ffffff;fill-opacity:1;stroke-width:1.15375006"
             id="path7708" />
          <path
             inkscape:connector-curvature="0"
             d="m 92.181686,673.45725 c 79.156444,0 127.174744,-52.2793 127.174744,-129.7969 0,-77.68148 -48.0183,-129.96078 -127.174744,-129.96078 -79.156444,0 -127.174742,52.2793 -127.174742,129.96078 0,77.5176 48.018298,129.7969 127.174742,129.7969 z m 0.491655,-60.47355 c -29.663181,0 -46.051679,-28.18822 -46.051679,-69.815 0,-41.79067 16.388498,-70.14277 46.051679,-70.14277 28.679869,0 45.068369,28.3521 45.068369,70.14277 0,41.62678 -16.3885,69.815 -45.068369,69.815 z"
             style="font-style:normal;font-variant:normal;font-weight:800;font-stretch:normal;font-family:'inter ui';-inkscape-font-specification:'inter ui Ultra-Bold';letter-spacing:-28.34334373px;fill:#ffffff;fill-opacity:1;stroke-width:1.15375006"
             id="path7710" />
          <path
             inkscape:connector-curvature="0"
             d="m 232.06623,668.70459 h 80.13976 V 532.02452 c 0.16388,-29.82707 20.97727,-49.65715 46.21556,-49.65715 9.66921,0 17.37181,2.94993 24.41886,6.22763 l 23.59944,-65.88176 c -9.66922,-5.57209 -21.96059,-9.17756 -35.23527,-9.17756 -27.53268,0 -49.49326,16.06073 -58.67082,49.32938 h -2.62216 v -45.88779 h -77.84537 z"
             style="font-style:normal;font-variant:normal;font-weight:800;font-stretch:normal;font-family:'inter ui';-inkscape-font-specification:'inter ui Ultra-Bold';letter-spacing:-28.34334373px;fill:#ffffff;fill-opacity:1;stroke-width:1.15375006"
             id="path7712" />
          <path
             inkscape:connector-curvature="0"
             d="m 512.48223,673.45725 c 66.04564,0 109.47516,-31.95757 118.65272,-81.45083 l -73.58435,-2.1305 c -6.22763,16.71626 -22.61613,25.72994 -43.59341,25.72994 -30.81037,0 -49.82103,-20.48562 -49.82103,-51.296 v -2.1305 h 167.81822 v -19.99397 c 0,-82.9258 -50.47658,-128.48582 -121.93043,-128.48582 -76.04263,0 -124.88035,52.11542 -124.88035,130.12467 0,80.63141 48.18219,129.63301 127.33863,129.63301 z M 464.13616,515.63602 c 1.1472,-25.0744 20.97728,-44.08506 47.52664,-44.08506 26.38548,0 45.39614,18.35512 45.72391,44.08506 z"
             style="font-style:normal;font-variant:normal;font-weight:800;font-stretch:normal;font-family:'inter ui';-inkscape-font-specification:'inter ui Ultra-Bold';letter-spacing:-28.34334373px;fill:#ffffff;fill-opacity:1;stroke-width:1.15375006"
             id="path7714" />
        </g>
      </g>
      <text
         id="text7730"
         y="690.01776"
         x="-1584.1545"
         style="font-style:normal;font-variant:normal;font-weight:normal;font-stretch:normal;font-size:72.76824188px;line-height:1.25;font-family:usual;-inkscape-font-specification:usual;letter-spacing:0px;word-spacing:0px;fill:#000000;fill-opacity:1;stroke:none;stroke-width:0.1819206"
         xml:space="preserve"><tspan
           style="font-style:normal;font-variant:normal;font-weight:normal;font-stretch:normal;font-family:'inter ui';-inkscape-font-specification:'inter ui';fill:#ffffff;fill-opacity:1;stroke-width:0.1819206"
           y="690.01776"
           x="-1584.1545"
           id="tspan7728"
           sodipodi:role="line">Ditch your password</tspan></text>
    </g>
  </g>
</svg>
